<svg width="44" height="44" viewBox="0 0 44 44" fill="none" xmlns="http://www.w3.org/2000/svg">
<g clip-path="url(#clip0_251_2018)">
<path d="M21.947 43.521C33.965 43.521 43.7075 33.7785 43.7075 21.7605C43.7075 9.74251 33.965 0 21.947 0C9.92903 0 0.186523 9.74251 0.186523 21.7605C0.186523 33.7785 9.92903 43.521 21.947 43.521Z" fill="#D0CAD9" fill-opacity="0.2"/>
<path d="M22.6403 28.6297C21.5559 28.6297 20.495 28.6297 19.4223 28.6297C19.4223 26.2722 19.4223 23.9264 19.4223 21.5571C18.9036 21.5571 18.3967 21.5571 17.8899 21.5571C17.8663 21.4746 17.8545 21.4156 17.8545 21.3567C17.8545 20.6966 17.8545 20.0247 17.8545 19.3645C17.8545 19.1995 17.9134 19.1524 18.0667 19.1524C18.4203 19.1641 18.7857 19.1524 19.1394 19.1641C19.3398 19.1641 19.4105 19.0934 19.4223 18.8812C19.4223 18.174 19.3987 17.4667 19.4576 16.7594C19.5519 15.5924 20.4478 14.673 21.6148 14.5669C22.5343 14.4726 23.4773 14.4962 24.4085 14.4608C24.6207 14.449 24.8329 14.4608 25.0568 14.4608C25.0568 15.2742 25.0568 16.0757 25.0568 16.9127C24.9743 16.9127 24.8918 16.9245 24.7975 16.9245C24.3614 16.9245 23.9252 16.9245 23.4891 16.9245C22.8879 16.9362 22.6286 17.1956 22.6286 17.7968C22.6286 18.1622 22.6403 18.5276 22.6286 18.893C22.6168 19.0816 22.6757 19.1406 22.8643 19.1406C23.5244 19.1288 24.1963 19.1406 24.8565 19.1406C24.9272 19.1406 24.9979 19.1524 25.0922 19.1524C24.9979 19.9539 24.8918 20.7319 24.7975 21.5335C24.0785 21.5335 23.3594 21.5335 22.6286 21.5335C22.6403 23.9146 22.6403 26.2722 22.6403 28.6297Z" fill="#5B21B6"/>
</g>
<defs>
<clipPath id="clip0_251_2018">
<rect width="44" height="44" fill="white"/>
</clipPath>
</defs>
</svg>
