<svg width="192" height="68" viewBox="0 0 192 68" fill="none" xmlns="http://www.w3.org/2000/svg">
<g filter="url(#filter0_d_256_1543)">
<rect x="2" y="1" width="188" height="64" rx="12" fill="white" shape-rendering="crispEdges"/>
<rect x="2.5" y="1.5" width="187" height="63" rx="11.5" stroke="#7C3AED" shape-rendering="crispEdges"/>
<path fill-rule="evenodd" clip-rule="evenodd" d="M48.7777 36.7123L45.1973 33.1224V32.8711L48.7777 29.2811L48.8555 29.3288L53.0906 31.7423C54.3028 32.427 54.3028 33.5579 53.0906 34.2512L48.8555 36.6647L48.7777 36.7123Z" fill="url(#paint0_linear_256_1543)"/>
<path fill-rule="evenodd" clip-rule="evenodd" d="M34.3955 22.1657C34.1448 22.4365 34 22.8503 34 23.3919V42.6025C34 43.1441 34.1448 43.5579 34.4041 43.8179L34.4711 43.8764L45.2058 33.1131V32.8726L34.4624 22.1072L34.3955 22.1657Z" fill="url(#paint1_linear_256_1543)"/>
<path fill-rule="evenodd" clip-rule="evenodd" d="M48.8545 36.6645L45.1963 32.9966L34.3945 43.8271C34.7899 44.2517 35.4533 44.2994 36.1944 43.8856L48.8545 36.6645Z" fill="url(#paint2_linear_256_1543)"/>
<path fill-rule="evenodd" clip-rule="evenodd" d="M48.8545 29.3288L36.1944 22.1186C35.4533 21.694 34.7878 21.7525 34.3945 22.1771L45.1963 32.9968L48.8545 29.3288Z" fill="url(#paint3_linear_256_1543)"/>
<path d="M67.0294 29.12C66.1494 29.12 65.3854 28.94 64.7374 28.58C64.0894 28.22 63.5894 27.716 63.2374 27.068C62.8854 26.412 62.7094 25.64 62.7094 24.752C62.7094 23.864 62.8814 23.084 63.2254 22.412C63.5774 21.732 64.0614 21.2 64.6774 20.816C65.3014 20.432 66.0174 20.24 66.8254 20.24C67.4574 20.24 68.0294 20.36 68.5414 20.6C69.0614 20.84 69.4854 21.172 69.8134 21.596C70.1494 22.02 70.3534 22.512 70.4254 23.072H69.4414C69.3614 22.48 69.0854 22.008 68.6134 21.656C68.1494 21.304 67.5654 21.128 66.8614 21.128C66.2294 21.128 65.6774 21.28 65.2054 21.584C64.7334 21.88 64.3654 22.296 64.1014 22.832C63.8454 23.368 63.7174 24 63.7174 24.728C63.7174 25.456 63.8494 26.084 64.1134 26.612C64.3854 27.132 64.7734 27.532 65.2774 27.812C65.7894 28.092 66.4014 28.232 67.1134 28.232C67.6014 28.232 68.0374 28.164 68.4214 28.028C68.8054 27.884 69.1534 27.664 69.4654 27.368L70.4494 27.728C70.0094 28.192 69.5014 28.54 68.9254 28.772C68.3574 29.004 67.7254 29.12 67.0294 29.12ZM69.4654 27.728V24.932L69.8374 25.304H67.1014V24.44H70.4494V27.728H69.4654ZM74.7532 29.12C74.1692 29.12 73.6532 28.984 73.2052 28.712C72.7572 28.432 72.4052 28.052 72.1492 27.572C71.8932 27.092 71.7652 26.54 71.7652 25.916C71.7652 25.292 71.8892 24.744 72.1372 24.272C72.3932 23.792 72.7492 23.42 73.2052 23.156C73.6612 22.892 74.1852 22.76 74.7772 22.76C75.3452 22.76 75.8372 22.884 76.2532 23.132C76.6772 23.38 77.0012 23.728 77.2252 24.176C77.4572 24.624 77.5732 25.152 77.5732 25.76C77.5732 25.84 77.5692 25.916 77.5612 25.988C77.5612 26.06 77.5532 26.14 77.5372 26.228H72.4852V25.424H76.9492L76.6372 25.868C76.6372 25.132 76.4732 24.568 76.1452 24.176C75.8252 23.776 75.3692 23.576 74.7772 23.576C74.1692 23.576 73.6772 23.788 73.3012 24.212C72.9332 24.628 72.7492 25.192 72.7492 25.904C72.7492 26.632 72.9332 27.216 73.3012 27.656C73.6772 28.088 74.1772 28.304 74.8012 28.304C75.1932 28.304 75.5372 28.22 75.8332 28.052C76.1292 27.876 76.3452 27.628 76.4812 27.308H77.3932C77.1932 27.868 76.8572 28.312 76.3852 28.64C75.9212 28.96 75.3772 29.12 74.7532 29.12ZM81.3963 29.108C80.7163 29.108 80.2203 28.956 79.9083 28.652C79.6043 28.34 79.4523 27.892 79.4523 27.308V21.452L80.4123 21.092V27.296C80.4123 27.64 80.5003 27.892 80.6763 28.052C80.8523 28.212 81.1403 28.292 81.5403 28.292C81.7003 28.292 81.8363 28.284 81.9483 28.268C82.0683 28.244 82.1643 28.216 82.2363 28.184V29C82.1563 29.032 82.0403 29.056 81.8883 29.072C81.7443 29.096 81.5803 29.108 81.3963 29.108ZM78.1923 23.696V22.88H82.2363V23.696H78.1923ZM85.8741 29V22.88H86.8341V29H85.8741ZM85.8021 21.488V20.36H86.9061V21.488H85.8021ZM91.1814 29.108C90.5014 29.108 90.0054 28.956 89.6934 28.652C89.3894 28.34 89.2374 27.892 89.2374 27.308V21.452L90.1974 21.092V27.296C90.1974 27.64 90.2854 27.892 90.4614 28.052C90.6374 28.212 90.9254 28.292 91.3254 28.292C91.4854 28.292 91.6214 28.284 91.7334 28.268C91.8534 28.244 91.9494 28.216 92.0214 28.184V29C91.9414 29.032 91.8254 29.056 91.6734 29.072C91.5294 29.096 91.3654 29.108 91.1814 29.108ZM87.9774 23.696V22.88H92.0214V23.696H87.9774ZM98.2032 29.12C97.6032 29.12 97.0752 28.98 96.6192 28.7C96.1632 28.42 95.8072 28.04 95.5512 27.56C95.3032 27.072 95.1792 26.524 95.1792 25.916C95.1792 25.3 95.3072 24.756 95.5632 24.284C95.8192 23.812 96.1712 23.44 96.6192 23.168C97.0752 22.896 97.6032 22.76 98.2032 22.76C98.8112 22.76 99.3392 22.896 99.7872 23.168C100.243 23.44 100.595 23.812 100.843 24.284C101.099 24.756 101.227 25.3 101.227 25.916C101.227 26.524 101.099 27.072 100.843 27.56C100.595 28.04 100.243 28.42 99.7872 28.7C99.3392 28.98 98.8112 29.12 98.2032 29.12ZM98.2032 28.304C98.6192 28.304 98.9792 28.204 99.2832 28.004C99.5872 27.796 99.8232 27.512 99.9912 27.152C100.159 26.792 100.243 26.376 100.243 25.904C100.243 25.2 100.055 24.636 99.6792 24.212C99.3112 23.788 98.8192 23.576 98.2032 23.576C97.5952 23.576 97.1032 23.788 96.7272 24.212C96.3512 24.636 96.1632 25.2 96.1632 25.904C96.1632 26.376 96.2472 26.792 96.4152 27.152C96.5832 27.512 96.8192 27.796 97.1232 28.004C97.4352 28.204 97.7952 28.304 98.2032 28.304ZM102.667 29V22.88H103.567V24.32H103.627V29H102.667ZM107.047 29V24.992C107.047 24.528 106.931 24.18 106.699 23.948C106.467 23.716 106.123 23.6 105.667 23.6C105.267 23.6 104.911 23.688 104.599 23.864C104.295 24.04 104.055 24.284 103.879 24.596C103.711 24.908 103.627 25.272 103.627 25.688L103.471 24.236C103.679 23.78 103.995 23.42 104.419 23.156C104.851 22.892 105.339 22.76 105.883 22.76C106.523 22.76 107.035 22.944 107.419 23.312C107.811 23.672 108.007 24.148 108.007 24.74V29H107.047Z" fill="#5B21B6"/>
<path d="M68.8471 47.16C67.6418 47.16 66.6018 46.92 65.7271 46.44C64.8525 45.9493 64.1751 45.2667 63.6951 44.392C63.2258 43.5173 62.9911 42.488 62.9911 41.304C62.9911 40.1307 63.2258 39.096 63.6951 38.2C64.1751 37.2933 64.8365 36.5893 65.6791 36.088C66.5218 35.576 67.4925 35.32 68.5911 35.32C69.4658 35.32 70.2551 35.4853 70.9591 35.816C71.6738 36.136 72.2551 36.584 72.7031 37.16C73.1618 37.736 73.4338 38.4027 73.5191 39.16H71.8231C71.7165 38.424 71.3751 37.8427 70.7991 37.416C70.2231 36.9787 69.5031 36.76 68.6391 36.76C67.8498 36.76 67.1618 36.9467 66.5751 37.32C65.9885 37.6933 65.5298 38.216 65.1991 38.888C64.8791 39.56 64.7191 40.3547 64.7191 41.272C64.7191 42.2 64.8845 43 65.2151 43.672C65.5458 44.3333 66.0258 44.8453 66.6551 45.208C67.2951 45.56 68.0631 45.736 68.9591 45.736C69.5991 45.736 70.1645 45.6453 70.6551 45.464C71.1458 45.2827 71.5725 45.016 71.9351 44.664L73.5831 45.288C72.9858 45.9067 72.2978 46.376 71.5191 46.696C70.7405 47.0053 69.8498 47.16 68.8471 47.16ZM71.8871 45.288V41.752L72.3831 42.248H68.9431V40.84H73.5831V45.288H71.8871ZM79.5375 47.16C78.7055 47.16 77.9748 46.9787 77.3455 46.616C76.7162 46.2427 76.2255 45.736 75.8735 45.096C75.5215 44.4453 75.3455 43.7093 75.3455 42.888C75.3455 42.056 75.5215 41.3253 75.8735 40.696C76.2362 40.0667 76.7268 39.576 77.3455 39.224C77.9748 38.8613 78.7055 38.68 79.5375 38.68C80.3802 38.68 81.1162 38.8613 81.7455 39.224C82.3748 39.576 82.8602 40.0667 83.2015 40.696C83.5535 41.3253 83.7295 42.056 83.7295 42.888C83.7295 43.7093 83.5535 44.4453 83.2015 45.096C82.8602 45.736 82.3748 46.2427 81.7455 46.616C81.1162 46.9787 80.3802 47.16 79.5375 47.16ZM79.5375 45.8C80.0388 45.8 80.4708 45.6773 80.8335 45.432C81.2068 45.1867 81.5002 44.8453 81.7135 44.408C81.9268 43.9707 82.0335 43.4587 82.0335 42.872C82.0335 41.9973 81.7988 41.3093 81.3295 40.808C80.8708 40.296 80.2735 40.04 79.5375 40.04C78.8122 40.04 78.2148 40.296 77.7455 40.808C77.2868 41.32 77.0575 42.008 77.0575 42.872C77.0575 43.4587 77.1588 43.9707 77.3615 44.408C77.5748 44.8453 77.8682 45.1867 78.2415 45.432C78.6255 45.6773 79.0575 45.8 79.5375 45.8ZM89.2706 47.16C88.4386 47.16 87.708 46.9787 87.0786 46.616C86.4493 46.2427 85.9586 45.736 85.6066 45.096C85.2546 44.4453 85.0786 43.7093 85.0786 42.888C85.0786 42.056 85.2546 41.3253 85.6066 40.696C85.9693 40.0667 86.46 39.576 87.0786 39.224C87.708 38.8613 88.4386 38.68 89.2706 38.68C90.1133 38.68 90.8493 38.8613 91.4786 39.224C92.108 39.576 92.5933 40.0667 92.9346 40.696C93.2866 41.3253 93.4626 42.056 93.4626 42.888C93.4626 43.7093 93.2866 44.4453 92.9346 45.096C92.5933 45.736 92.108 46.2427 91.4786 46.616C90.8493 46.9787 90.1133 47.16 89.2706 47.16ZM89.2706 45.8C89.772 45.8 90.204 45.6773 90.5666 45.432C90.94 45.1867 91.2333 44.8453 91.4466 44.408C91.66 43.9707 91.7666 43.4587 91.7666 42.872C91.7666 41.9973 91.532 41.3093 91.0626 40.808C90.604 40.296 90.0066 40.04 89.2706 40.04C88.5453 40.04 87.948 40.296 87.4786 40.808C87.02 41.32 86.7906 42.008 86.7906 42.872C86.7906 43.4587 86.892 43.9707 87.0946 44.408C87.308 44.8453 87.6013 45.1867 87.9746 45.432C88.3586 45.6773 88.7906 45.8 89.2706 45.8ZM98.907 50.44C97.883 50.44 97.035 50.2053 96.363 49.736C95.7017 49.2773 95.3017 48.664 95.163 47.896H96.731C96.8377 48.248 97.0723 48.5253 97.435 48.728C97.8083 48.9307 98.3043 49.032 98.923 49.032C99.723 49.032 100.32 48.8347 100.715 48.44C101.11 48.0453 101.307 47.4587 101.307 46.68V44.92L101.451 44.952C101.291 45.5707 100.944 46.0613 100.411 46.424C99.8777 46.776 99.2377 46.952 98.491 46.952C97.7763 46.952 97.147 46.7813 96.603 46.44C96.059 46.0987 95.6377 45.624 95.339 45.016C95.0403 44.3973 94.891 43.6773 94.891 42.856C94.891 42.024 95.0457 41.2933 95.355 40.664C95.6643 40.0347 96.0963 39.5493 96.651 39.208C97.2163 38.8667 97.8723 38.696 98.619 38.696C99.387 38.696 100.022 38.8827 100.523 39.256C101.035 39.6187 101.36 40.136 101.499 40.808L101.371 40.824V38.84H102.955V46.664C102.955 47.8373 102.592 48.76 101.867 49.432C101.152 50.104 100.166 50.44 98.907 50.44ZM98.987 45.608C99.7017 45.608 100.272 45.3573 100.699 44.856C101.136 44.3547 101.355 43.6667 101.355 42.792C101.355 41.9387 101.136 41.2667 100.699 40.776C100.272 40.2853 99.6963 40.04 98.971 40.04C98.2457 40.04 97.6697 40.2907 97.243 40.792C96.8163 41.2827 96.603 41.9653 96.603 42.84C96.603 43.6933 96.8163 44.3707 97.243 44.872C97.6803 45.3627 98.2617 45.608 98.987 45.608ZM105.575 47V35.48H107.239V47H105.575ZM113.376 47.16C112.554 47.16 111.829 46.9787 111.2 46.616C110.581 46.2533 110.096 45.752 109.743 45.112C109.391 44.472 109.215 43.736 109.215 42.904C109.215 42.0613 109.386 41.3253 109.728 40.696C110.08 40.056 110.57 39.56 111.2 39.208C111.829 38.856 112.549 38.68 113.36 38.68C114.149 38.68 114.832 38.8507 115.408 39.192C115.994 39.5227 116.442 39.9867 116.752 40.584C117.072 41.1813 117.232 41.8907 117.232 42.712C117.232 42.84 117.226 42.9627 117.216 43.08C117.216 43.1867 117.205 43.2987 117.184 43.416H110.336V42.168H116.016L115.6 42.664C115.6 41.7893 115.402 41.1227 115.008 40.664C114.613 40.2053 114.064 39.976 113.36 39.976C112.602 39.976 112 40.2373 111.552 40.76C111.114 41.272 110.896 41.9867 110.896 42.904C110.896 43.832 111.114 44.5573 111.552 45.08C112 45.6027 112.618 45.864 113.408 45.864C113.888 45.864 114.304 45.768 114.656 45.576C115.008 45.3733 115.269 45.08 115.44 44.696H117.008C116.741 45.464 116.288 46.0667 115.648 46.504C115.018 46.9413 114.261 47.16 113.376 47.16ZM122.666 47V35.48H127.546C128.378 35.48 129.087 35.6187 129.674 35.896C130.261 36.1733 130.709 36.568 131.018 37.08C131.338 37.592 131.498 38.2 131.498 38.904C131.498 39.6187 131.338 40.2373 131.018 40.76C130.709 41.272 130.255 41.672 129.658 41.96C129.071 42.248 128.367 42.392 127.546 42.392H123.962V40.984H127.466C128.223 40.984 128.799 40.8027 129.194 40.44C129.599 40.0773 129.802 39.5707 129.802 38.92C129.802 38.2587 129.605 37.752 129.21 37.4C128.815 37.048 128.234 36.872 127.466 36.872H124.362V47H122.666ZM133.508 47V35.48H135.172V47H133.508ZM142.844 47C142.791 46.7973 142.753 46.5733 142.732 46.328C142.721 46.0827 142.716 45.784 142.716 45.432H142.636V41.544C142.636 41.0213 142.503 40.632 142.236 40.376C141.98 40.1093 141.569 39.976 141.004 39.976C140.46 39.976 140.023 40.0827 139.692 40.296C139.372 40.5093 139.185 40.8133 139.132 41.208H137.548C137.623 40.44 137.969 39.8267 138.588 39.368C139.207 38.9093 140.033 38.68 141.068 38.68C142.135 38.68 142.935 38.9307 143.468 39.432C144.001 39.9227 144.268 40.648 144.268 41.608V45.432C144.268 45.6773 144.284 45.928 144.316 46.184C144.348 46.44 144.396 46.712 144.46 47H142.844ZM140.028 47.16C139.196 47.16 138.535 46.9573 138.044 46.552C137.553 46.136 137.308 45.576 137.308 44.872C137.308 44.1467 137.564 43.576 138.076 43.16C138.599 42.7333 139.345 42.4453 140.316 42.296L143.004 41.864V43.032L140.572 43.416C140.028 43.5013 139.617 43.6453 139.34 43.848C139.073 44.0507 138.94 44.344 138.94 44.728C138.94 45.1013 139.063 45.384 139.308 45.576C139.564 45.7573 139.932 45.848 140.412 45.848C141.052 45.848 141.58 45.6933 141.996 45.384C142.423 45.0747 142.636 44.6853 142.636 44.216L142.844 45.4C142.652 45.9653 142.311 46.4027 141.82 46.712C141.329 47.0107 140.732 47.16 140.028 47.16ZM146.989 50.28L148.957 45.784L149.293 45.256L151.773 38.84H153.501L148.701 50.28H146.989ZM148.877 47L145.389 38.84H147.197L150.157 46.184L148.877 47Z" fill="#5B21B6"/>
</g>
<defs>
<filter id="filter0_d_256_1543" x="0" y="0" width="192" height="68" filterUnits="userSpaceOnUse" color-interpolation-filters="sRGB">
<feFlood flood-opacity="0" result="BackgroundImageFix"/>
<feColorMatrix in="SourceAlpha" type="matrix" values="0 0 0 0 0 0 0 0 0 0 0 0 0 0 0 0 0 0 127 0" result="hardAlpha"/>
<feOffset dy="1"/>
<feGaussianBlur stdDeviation="1"/>
<feComposite in2="hardAlpha" operator="out"/>
<feColorMatrix type="matrix" values="0 0 0 0 0 0 0 0 0 0 0 0 0 0 0 0 0 0 0.05 0"/>
<feBlend mode="normal" in2="BackgroundImageFix" result="effect1_dropShadow_256_1543"/>
<feBlend mode="normal" in="SourceGraphic" in2="effect1_dropShadow_256_1543" result="shape"/>
</filter>
<linearGradient id="paint0_linear_256_1543" x1="54.6715" y1="32.9968" x2="33.7054" y2="32.9968" gradientUnits="userSpaceOnUse">
<stop stop-color="#FFE000"/>
<stop offset="0.4087" stop-color="#FFBD00"/>
<stop offset="0.7754" stop-color="#FFA500"/>
<stop offset="1" stop-color="#FF9C00"/>
</linearGradient>
<linearGradient id="paint1_linear_256_1543" x1="44.243" y1="23.1846" x2="27.0416" y2="27.7558" gradientUnits="userSpaceOnUse">
<stop stop-color="#00A0FF"/>
<stop offset="0.00657" stop-color="#00A1FF"/>
<stop offset="0.2601" stop-color="#00BEFF"/>
<stop offset="0.5122" stop-color="#00D2FF"/>
<stop offset="0.7604" stop-color="#00DFFF"/>
<stop offset="1" stop-color="#00E3FF"/>
</linearGradient>
<linearGradient id="paint2_linear_256_1543" x1="46.8653" y1="34.9925" x2="33.0068" y2="58.2557" gradientUnits="userSpaceOnUse">
<stop stop-color="#FF3A44"/>
<stop offset="1" stop-color="#C31162"/>
</linearGradient>
<linearGradient id="paint3_linear_256_1543" x1="31.6745" y1="15.7765" x2="37.8573" y2="26.1663" gradientUnits="userSpaceOnUse">
<stop stop-color="#32A071"/>
<stop offset="0.0685" stop-color="#2DA771"/>
<stop offset="0.4762" stop-color="#15CF74"/>
<stop offset="0.8009" stop-color="#06E775"/>
<stop offset="1" stop-color="#00F076"/>
</linearGradient>
</defs>
</svg>
