<svg width="22" height="27" viewBox="0 0 22 27" fill="none" xmlns="http://www.w3.org/2000/svg">
<path d="M10.6667 26.6667C7.57778 25.8889 5.02778 24.1167 3.01667 21.35C1.00556 18.5833 0 15.5111 0 12.1333V4L10.6667 0L21.3333 4V12.1333C21.3333 14.0222 21.0111 15.8389 20.3667 17.5833C19.7222 19.3278 18.8 20.8667 17.6 22.2L13.3333 17.9333C12.9333 18.1778 12.5056 18.3611 12.05 18.4833C11.5944 18.6056 11.1333 18.6667 10.6667 18.6667C9.2 18.6667 7.94444 18.1444 6.9 17.1C5.85556 16.0556 5.33333 14.8 5.33333 13.3333C5.33333 11.8667 5.85556 10.6111 6.9 9.56667C7.94444 8.52222 9.2 8 10.6667 8C12.1333 8 13.3889 8.52222 14.4333 9.56667C15.4778 10.6111 16 11.8667 16 13.3333C16 13.8222 15.9389 14.2944 15.8167 14.75C15.6944 15.2056 15.5111 15.6444 15.2667 16.0667L17.2667 18.0667C17.7111 17.1556 18.0556 16.2 18.3 15.2C18.5444 14.2 18.6667 13.1778 18.6667 12.1333V5.83333L10.6667 2.83333L2.66667 5.83333V12.1333C2.66667 14.8222 3.42222 17.2667 4.93333 19.4667C6.44444 21.6667 8.35556 23.1333 10.6667 23.8667C11.2444 23.6889 11.7944 23.4611 12.3167 23.1833C12.8389 22.9056 13.3556 22.5778 13.8667 22.2L15.7333 24.0667C15 24.6667 14.2056 25.1889 13.35 25.6333C12.4944 26.0778 11.6 26.4222 10.6667 26.6667ZM10.6667 16C11.4 16 12.0278 15.7389 12.55 15.2167C13.0722 14.6944 13.3333 14.0667 13.3333 13.3333C13.3333 12.6 13.0722 11.9722 12.55 11.45C12.0278 10.9278 11.4 10.6667 10.6667 10.6667C9.93333 10.6667 9.30556 10.9278 8.78333 11.45C8.26111 11.9722 8 12.6 8 13.3333C8 14.0667 8.26111 14.6944 8.78333 15.2167C9.30556 15.7389 9.93333 16 10.6667 16Z" fill="#5B21B6"/>
</svg>
