<svg width="56" height="56" viewBox="0 0 56 56" fill="none" xmlns="http://www.w3.org/2000/svg">
<rect width="56" height="56" rx="12" fill="#2B6954" fill-opacity="0.1"/>
<path d="M22 35.75C20.2667 35.3 18.8333 34.3667 17.7 32.95C16.5667 31.5333 16 29.8833 16 28C16 26.1167 16.5667 24.4667 17.7 23.05C18.8333 21.6333 20.2667 20.7 22 20.25V22.35C20.8167 22.75 19.8542 23.4667 19.1125 24.5C18.3708 25.5333 18 26.7 18 28C18 29.3 18.3708 30.4667 19.1125 31.5C19.8542 32.5333 20.8167 33.25 22 33.65V35.75ZM30 36C27.7833 36 25.8958 35.2208 24.3375 33.6625C22.7792 32.1042 22 30.2167 22 28C22 25.7833 22.7792 23.8958 24.3375 22.3375C25.8958 20.7792 27.7833 20 30 20C31.1 20 32.1333 20.2083 33.1 20.625C34.0667 21.0417 34.9167 21.6167 35.65 22.35L34.25 23.75C33.7 23.2 33.0625 22.7708 32.3375 22.4625C31.6125 22.1542 30.8333 22 30 22C28.3333 22 26.9167 22.5833 25.75 23.75C24.5833 24.9167 24 26.3333 24 28C24 29.6667 24.5833 31.0833 25.75 32.25C26.9167 33.4167 28.3333 34 30 34C30.8333 34 31.6125 33.8458 32.3375 33.5375C33.0625 33.2292 33.7 32.8 34.25 32.25L35.65 33.65C34.9167 34.3833 34.0667 34.9583 33.1 35.375C32.1333 35.7917 31.1 36 30 36ZM36 32L34.6 30.6L36.2 29H29V27H36.2L34.6 25.4L36 24L40 28L36 32Z" fill="#2B6954"/>
</svg>
