<svg width="48" height="48" viewBox="0 0 48 48" fill="none" xmlns="http://www.w3.org/2000/svg">
<rect width="48" height="48" rx="8" fill="#EDE9FE"/>
<path d="M24 31C22.2333 31 20.6958 30.4292 19.3875 29.2875C18.0792 28.1458 17.3083 26.7167 17.075 25H14V23H17.075C17.3083 21.2833 18.0792 19.8542 19.3875 18.7125C20.6958 17.5708 22.2333 17 24 17C25.7667 17 27.3042 17.5708 28.6125 18.7125C29.9208 19.8542 30.6917 21.2833 30.925 23H34V25H30.925C30.6917 26.7167 29.9208 28.1458 28.6125 29.2875C27.3042 30.4292 25.7667 31 24 31ZM22 27.5H26C26.2833 27.5 26.5208 27.4042 26.7125 27.2125C26.9042 27.0208 27 26.7833 27 26.5V23.5C27 23.2167 26.9042 22.9792 26.7125 22.7875C26.5208 22.5958 26.2833 22.5 26 22.5V21.6C26 21.0167 25.8083 20.5208 25.425 20.1125C25.0417 19.7042 24.5667 19.5 24 19.5C23.45 19.5 22.9792 19.6958 22.5875 20.0875C22.1958 20.4792 22 20.95 22 21.5V22.5C21.7167 22.5 21.4792 22.5958 21.2875 22.7875C21.0958 22.9792 21 23.2167 21 23.5V26.5C21 26.7833 21.0958 27.0208 21.2875 27.2125C21.4792 27.4042 21.7167 27.5 22 27.5ZM24 25.75C23.7833 25.75 23.6042 25.6792 23.4625 25.5375C23.3208 25.3958 23.25 25.2167 23.25 25C23.25 24.7833 23.3208 24.6042 23.4625 24.4625C23.6042 24.3208 23.7833 24.25 24 24.25C24.2167 24.25 24.3958 24.3208 24.5375 24.4625C24.6792 24.6042 24.75 24.7833 24.75 25C24.75 25.2167 24.6792 25.3958 24.5375 25.5375C24.3958 25.6792 24.2167 25.75 24 25.75ZM23 22.5V21.5C23 21.2167 23.0958 20.9792 23.2875 20.7875C23.4792 20.5958 23.7167 20.5 24 20.5C24.2833 20.5 24.5208 20.5958 24.7125 20.7875C24.9042 20.9792 25 21.2167 25 21.5V22.5H23Z" fill="#5B21B6"/>
</svg>
