<svg width="64" height="64" viewBox="0 0 64 64" fill="none" xmlns="http://www.w3.org/2000/svg">
<rect width="64" height="64" rx="12" fill="#EDE9FE"/>
<path d="M20.75 43.875V26.375H28.25V23.875L32 20.125L35.75 23.875V31.375H43.25V43.875H20.75ZM23.25 41.375H25.75V38.875H23.25V41.375ZM23.25 36.375H25.75V33.875H23.25V36.375ZM23.25 31.375H25.75V28.875H23.25V31.375ZM30.75 41.375H33.25V38.875H30.75V41.375ZM30.75 36.375H33.25V33.875H30.75V36.375ZM30.75 31.375H33.25V28.875H30.75V31.375ZM30.75 26.375H33.25V23.875H30.75V26.375ZM38.25 41.375H40.75V38.875H38.25V41.375ZM38.25 36.375H40.75V33.875H38.25V36.375Z" fill="#5B21B6"/>
</svg>
