<svg width="46" height="44" viewBox="0 0 46 44" fill="none" xmlns="http://www.w3.org/2000/svg">
<g filter="url(#filter0_d_256_791)">
<rect x="2" y="1" width="42" height="40" rx="8" fill="white" shape-rendering="crispEdges"/>
<path d="M16 29C15.45 29 14.9792 28.8042 14.5875 28.4125C14.1958 28.0208 14 27.55 14 27C14 26.45 14.1958 25.9792 14.5875 25.5875C14.9792 25.1958 15.45 25 16 25C16.55 25 17.0208 25.1958 17.4125 25.5875C17.8042 25.9792 18 26.45 18 27C18 27.55 17.8042 28.0208 17.4125 28.4125C17.0208 28.8042 16.55 29 16 29ZM16 23C15.45 23 14.9792 22.8042 14.5875 22.4125C14.1958 22.0208 14 21.55 14 21C14 20.45 14.1958 19.9792 14.5875 19.5875C14.9792 19.1958 15.45 19 16 19C16.55 19 17.0208 19.1958 17.4125 19.5875C17.8042 19.9792 18 20.45 18 21C18 21.55 17.8042 22.0208 17.4125 22.4125C17.0208 22.8042 16.55 23 16 23ZM16 17C15.45 17 14.9792 16.8042 14.5875 16.4125C14.1958 16.0208 14 15.55 14 15C14 14.45 14.1958 13.9792 14.5875 13.5875C14.9792 13.1958 15.45 13 16 13C16.55 13 17.0208 13.1958 17.4125 13.5875C17.8042 13.9792 18 14.45 18 15C18 15.55 17.8042 16.0208 17.4125 16.4125C17.0208 16.8042 16.55 17 16 17ZM22 17C21.45 17 20.9792 16.8042 20.5875 16.4125C20.1958 16.0208 20 15.55 20 15C20 14.45 20.1958 13.9792 20.5875 13.5875C20.9792 13.1958 21.45 13 22 13C22.55 13 23.0208 13.1958 23.4125 13.5875C23.8042 13.9792 24 14.45 24 15C24 15.55 23.8042 16.0208 23.4125 16.4125C23.0208 16.8042 22.55 17 22 17ZM28 17C27.45 17 26.9792 16.8042 26.5875 16.4125C26.1958 16.0208 26 15.55 26 15C26 14.45 26.1958 13.9792 26.5875 13.5875C26.9792 13.1958 27.45 13 28 13C28.55 13 29.0208 13.1958 29.4125 13.5875C29.8042 13.9792 30 14.45 30 15C30 15.55 29.8042 16.0208 29.4125 16.4125C29.0208 16.8042 28.55 17 28 17ZM22 23C21.45 23 20.9792 22.8042 20.5875 22.4125C20.1958 22.0208 20 21.55 20 21C20 20.45 20.1958 19.9792 20.5875 19.5875C20.9792 19.1958 21.45 19 22 19C22.55 19 23.0208 19.1958 23.4125 19.5875C23.8042 19.9792 24 20.45 24 21C24 21.55 23.8042 22.0208 23.4125 22.4125C23.0208 22.8042 22.55 23 22 23ZM23 29V25.925L28.525 20.425C28.675 20.275 28.8417 20.1667 29.025 20.1C29.2083 20.0333 29.3917 20 29.575 20C29.775 20 29.9667 20.0375 30.15 20.1125C30.3333 20.1875 30.5 20.3 30.65 20.45L31.575 21.375C31.7083 21.525 31.8125 21.6917 31.8875 21.875C31.9625 22.0583 32 22.2417 32 22.425C32 22.6083 31.9667 22.7958 31.9 22.9875C31.8333 23.1792 31.725 23.35 31.575 23.5L26.075 29H23ZM30.5 22.425L29.575 21.5L30.5 22.425ZM24.5 27.5H25.45L28.475 24.45L28.025 23.975L27.55 23.525L24.5 26.55V27.5ZM28.025 23.975L27.55 23.525L28.475 24.45L28.025 23.975Z" fill="url(#paint0_linear_256_791)"/>
</g>
<defs>
<filter id="filter0_d_256_791" x="0" y="0" width="46" height="44" filterUnits="userSpaceOnUse" color-interpolation-filters="sRGB">
<feFlood flood-opacity="0" result="BackgroundImageFix"/>
<feColorMatrix in="SourceAlpha" type="matrix" values="0 0 0 0 0 0 0 0 0 0 0 0 0 0 0 0 0 0 127 0" result="hardAlpha"/>
<feOffset dy="1"/>
<feGaussianBlur stdDeviation="1"/>
<feComposite in2="hardAlpha" operator="out"/>
<feColorMatrix type="matrix" values="0 0 0 0 0 0 0 0 0 0 0 0 0 0 0 0 0 0 0.05 0"/>
<feBlend mode="normal" in2="BackgroundImageFix" result="effect1_dropShadow_256_791"/>
<feBlend mode="normal" in="SourceGraphic" in2="effect1_dropShadow_256_791" result="shape"/>
</filter>
<linearGradient id="paint0_linear_256_791" x1="14" y1="13" x2="29.8897" y2="30.8759" gradientUnits="userSpaceOnUse">
<stop stop-color="#7C3AED"/>
<stop offset="1" stop-color="#5B21B6"/>
</linearGradient>
</defs>
</svg>
