<svg width="56" height="56" viewBox="0 0 56 56" fill="none" xmlns="http://www.w3.org/2000/svg">
<rect width="56" height="56" rx="12" fill="#D2BBFF" fill-opacity="0.1"/>
<path d="M24.5 37V35H21.5V33H23.5V23H21.5V21H24.5V19H26.5V21H28.5V19H30.5V21.125C31.3667 21.3583 32.0833 21.8292 32.65 22.5375C33.2167 23.2458 33.5 24.0667 33.5 25C33.5 25.4833 33.4167 25.9458 33.25 26.3875C33.0833 26.8292 32.85 27.225 32.55 27.575C33.1333 27.925 33.6042 28.4 33.9625 29C34.3208 29.6 34.5 30.2667 34.5 31C34.5 32.1 34.1083 33.0417 33.325 33.825C32.5417 34.6083 31.6 35 30.5 35V37H28.5V35H26.5V37H24.5ZM25.5 27H29.5C30.05 27 30.5208 26.8042 30.9125 26.4125C31.3042 26.0208 31.5 25.55 31.5 25C31.5 24.45 31.3042 23.9792 30.9125 23.5875C30.5208 23.1958 30.05 23 29.5 23H25.5V27ZM25.5 33H30.5C31.05 33 31.5208 32.8042 31.9125 32.4125C32.3042 32.0208 32.5 31.55 32.5 31C32.5 30.45 32.3042 29.9792 31.9125 29.5875C31.5208 29.1958 31.05 29 30.5 29H25.5V33Z" fill="#D2BBFF"/>
</svg>
