<svg width="48" height="48" viewBox="0 0 48 48" fill="none" xmlns="http://www.w3.org/2000/svg">
<rect width="48" height="48" rx="12" fill="#D2FFD5"/>
<path d="M24 28.5C25.25 28.5 26.3125 28.0625 27.1875 27.1875C28.0625 26.3125 28.5 25.25 28.5 24C28.5 22.75 28.0625 21.6875 27.1875 20.8125C26.3125 19.9375 25.25 19.5 24 19.5C22.75 19.5 21.6875 19.9375 20.8125 20.8125C19.9375 21.6875 19.5 22.75 19.5 24C19.5 25.25 19.9375 26.3125 20.8125 27.1875C21.6875 28.0625 22.75 28.5 24 28.5ZM24 26.7C23.25 26.7 22.6125 26.4375 22.0875 25.9125C21.5625 25.3875 21.3 24.75 21.3 24C21.3 23.25 21.5625 22.6125 22.0875 22.0875C22.6125 21.5625 23.25 21.3 24 21.3C24.75 21.3 25.3875 21.5625 25.9125 22.0875C26.4375 22.6125 26.7 23.25 26.7 24C26.7 24.75 26.4375 25.3875 25.9125 25.9125C25.3875 26.4375 24.75 26.7 24 26.7ZM24 31.5C21.5667 31.5 19.35 30.8208 17.35 29.4625C15.35 28.1042 13.9 26.2833 13 24C13.9 21.7167 15.35 19.8958 17.35 18.5375C19.35 17.1792 21.5667 16.5 24 16.5C26.4333 16.5 28.65 17.1792 30.65 18.5375C32.65 19.8958 34.1 21.7167 35 24C34.1 26.2833 32.65 28.1042 30.65 29.4625C28.65 30.8208 26.4333 31.5 24 31.5ZM24 29.5C25.8833 29.5 27.6125 29.0042 29.1875 28.0125C30.7625 27.0208 31.9667 25.6833 32.8 24C31.9667 22.3167 30.7625 20.9792 29.1875 19.9875C27.6125 18.9958 25.8833 18.5 24 18.5C22.1167 18.5 20.3875 18.9958 18.8125 19.9875C17.2375 20.9792 16.0333 22.3167 15.2 24C16.0333 25.6833 17.2375 27.0208 18.8125 28.0125C20.3875 29.0042 22.1167 29.5 24 29.5Z" fill="#17A822"/>
</svg>
