<svg width="48" height="46" viewBox="0 0 48 46" fill="none" xmlns="http://www.w3.org/2000/svg">
<g filter="url(#filter0_d_256_807)">
<rect x="2" y="1" width="44" height="42" rx="8" fill="white" shape-rendering="crispEdges"/>
<path d="M23 31V29H31V21.9C31 19.95 30.3208 18.2958 28.9625 16.9375C27.6042 15.5792 25.95 14.9 24 14.9C22.05 14.9 20.3958 15.5792 19.0375 16.9375C17.6792 18.2958 17 19.95 17 21.9V28H16C15.45 28 14.9792 27.8042 14.5875 27.4125C14.1958 27.0208 14 26.55 14 26V24C14 23.65 14.0875 23.3208 14.2625 23.0125C14.4375 22.7042 14.6833 22.4583 15 22.275L15.075 20.95C15.2083 19.8167 15.5375 18.7667 16.0625 17.8C16.5875 16.8333 17.2458 15.9917 18.0375 15.275C18.8292 14.5583 19.7375 14 20.7625 13.6C21.7875 13.2 22.8667 13 24 13C25.1333 13 26.2083 13.2 27.225 13.6C28.2417 14 29.15 14.5542 29.95 15.2625C30.75 15.9708 31.4083 16.8083 31.925 17.775C32.4417 18.7417 32.775 19.7917 32.925 20.925L33 22.225C33.3167 22.375 33.5625 22.6 33.7375 22.9C33.9125 23.2 34 23.5167 34 23.85V26.15C34 26.4833 33.9125 26.8 33.7375 27.1C33.5625 27.4 33.3167 27.625 33 27.775V29C33 29.55 32.8042 30.0208 32.4125 30.4125C32.0208 30.8042 31.55 31 31 31H23ZM21 24C20.7167 24 20.4792 23.9042 20.2875 23.7125C20.0958 23.5208 20 23.2833 20 23C20 22.7167 20.0958 22.4792 20.2875 22.2875C20.4792 22.0958 20.7167 22 21 22C21.2833 22 21.5208 22.0958 21.7125 22.2875C21.9042 22.4792 22 22.7167 22 23C22 23.2833 21.9042 23.5208 21.7125 23.7125C21.5208 23.9042 21.2833 24 21 24ZM27 24C26.7167 24 26.4792 23.9042 26.2875 23.7125C26.0958 23.5208 26 23.2833 26 23C26 22.7167 26.0958 22.4792 26.2875 22.2875C26.4792 22.0958 26.7167 22 27 22C27.2833 22 27.5208 22.0958 27.7125 22.2875C27.9042 22.4792 28 22.7167 28 23C28 23.2833 27.9042 23.5208 27.7125 23.7125C27.5208 23.9042 27.2833 24 27 24ZM18.025 22.45C17.9083 20.6833 18.4417 19.1667 19.625 17.9C20.8083 16.6333 22.2833 16 24.05 16C25.5333 16 26.8375 16.4708 27.9625 17.4125C29.0875 18.3542 29.7667 19.5583 30 21.025C28.4833 21.0083 27.0875 20.6 25.8125 19.8C24.5375 19 23.5583 17.9167 22.875 16.55C22.6083 17.8833 22.0458 19.0708 21.1875 20.1125C20.3292 21.1542 19.275 21.9333 18.025 22.45Z" fill="url(#paint0_linear_256_807)"/>
</g>
<defs>
<filter id="filter0_d_256_807" x="0" y="0" width="48" height="46" filterUnits="userSpaceOnUse" color-interpolation-filters="sRGB">
<feFlood flood-opacity="0" result="BackgroundImageFix"/>
<feColorMatrix in="SourceAlpha" type="matrix" values="0 0 0 0 0 0 0 0 0 0 0 0 0 0 0 0 0 0 127 0" result="hardAlpha"/>
<feOffset dy="1"/>
<feGaussianBlur stdDeviation="1"/>
<feComposite in2="hardAlpha" operator="out"/>
<feColorMatrix type="matrix" values="0 0 0 0 0 0 0 0 0 0 0 0 0 0 0 0 0 0 0.05 0"/>
<feBlend mode="normal" in2="BackgroundImageFix" result="effect1_dropShadow_256_807"/>
<feBlend mode="normal" in="SourceGraphic" in2="effect1_dropShadow_256_807" result="shape"/>
</filter>
<linearGradient id="paint0_linear_256_807" x1="14" y1="13" x2="31.9006" y2="32.8895" gradientUnits="userSpaceOnUse">
<stop stop-color="#7C3AED"/>
<stop offset="1" stop-color="#5B21B6"/>
</linearGradient>
</defs>
</svg>
