<svg width="40" height="40" viewBox="0 0 40 40" fill="none" xmlns="http://www.w3.org/2000/svg">
<rect width="40" height="40" rx="12" fill="#EDE9FE"/>
<path d="M23.0496 15.8501C22.8496 15.3501 22.5538 14.9584 22.1621 14.6751C21.7704 14.3918 21.2996 14.2501 20.7496 14.2501C20.4496 14.2501 20.1579 14.2918 19.8746 14.3751C19.5913 14.4584 19.3329 14.6168 19.0996 14.8501L17.6496 13.4001C17.8829 13.1668 18.1996 12.9543 18.5996 12.7626C18.9996 12.5709 19.3663 12.4501 19.6996 12.4001V10.3001H21.6996V12.3501C22.4496 12.5001 23.1079 12.8043 23.6746 13.2626C24.2413 13.7209 24.6663 14.3168 24.9496 15.0501L23.0496 15.8501ZM28.4996 29.9001L23.8996 25.3001C23.6496 25.5501 23.3079 25.7543 22.8746 25.9126C22.4413 26.0709 22.0496 26.1668 21.6996 26.2001V28.3001H19.6996V26.1501C18.7663 25.9168 17.9871 25.4918 17.3621 24.8751C16.7371 24.2584 16.2829 23.4834 15.9996 22.5501L17.9996 21.7501C18.1996 22.4501 18.5371 23.0501 19.0121 23.5501C19.4871 24.0501 20.1163 24.3001 20.8996 24.3001C21.1996 24.3001 21.4746 24.2626 21.7246 24.1876C21.9746 24.1126 22.2163 24.0001 22.4496 23.8501L10.0996 11.5001L11.4996 10.1001L29.8996 28.5001L28.4996 29.9001Z" fill="#5B21B6"/>
</svg>
