<svg width="180" height="68" viewBox="0 0 180 68" fill="none" xmlns="http://www.w3.org/2000/svg">
<g filter="url(#filter0_d_251_803)">
<rect x="2" y="1" width="176" height="64" rx="12" fill="url(#paint0_linear_251_803)" shape-rendering="crispEdges"/>
<path d="M50.7045 33.7821C50.7166 32.8397 50.9669 31.9157 51.432 31.0962C51.8972 30.2766 52.5621 29.5879 53.3648 29.0944C52.8548 28.366 52.1821 27.7665 51.4 27.3436C50.6179 26.9208 49.7479 26.6861 48.8592 26.6583C46.9635 26.4593 45.1258 27.7927 44.1598 27.7927C43.175 27.7927 41.6878 26.6781 40.0862 26.711C39.0502 26.7445 38.0406 27.0457 37.1557 27.5855C36.2708 28.1252 35.5408 28.885 35.0368 29.7908C32.8535 33.5712 34.482 39.1272 36.5734 42.1829C37.6197 43.6793 38.8426 45.3507 40.4428 45.2915C42.0086 45.2265 42.5934 44.2929 44.4836 44.2929C46.3561 44.2929 46.9048 45.2915 48.5374 45.2538C50.2176 45.2265 51.2762 43.7508 52.2858 42.2403C53.0377 41.1741 53.6162 39.9957 54 38.7488C53.0238 38.3359 52.1908 37.6448 51.6048 36.7615C51.0188 35.8783 50.7057 34.8421 50.7045 33.7821Z" fill="white"/>
<path d="M47.621 24.6482C48.5372 23.5483 48.9885 22.1345 48.8792 20.7072C47.4796 20.8543 46.1867 21.5233 45.2582 22.581C44.8043 23.0977 44.4566 23.6988 44.235 24.35C44.0135 25.0011 43.9224 25.6896 43.9671 26.376C44.6671 26.3832 45.3598 26.2315 45.9927 25.9322C46.6256 25.6329 47.1824 25.1939 47.621 24.6482Z" fill="white"/>
<path d="M62.7761 29L65.5561 21.8H66.2761L63.5661 29H62.7761ZM68.4961 29L65.7861 21.8H66.5561L69.3361 29H68.4961ZM64.1561 26.09H67.9161V26.81H64.1561V26.09ZM71.5876 29L69.4776 23.9H70.3376L72.0976 28.46H71.7776L73.5276 23.9H74.3476L72.2376 29H71.5876ZM78.5857 29.01C78.5591 28.8967 78.5391 28.7667 78.5257 28.62C78.5191 28.4733 78.5157 28.2833 78.5157 28.05H78.4657V25.61C78.4657 25.2233 78.3757 24.94 78.1957 24.76C78.0224 24.5733 77.7391 24.48 77.3457 24.48C76.9591 24.48 76.6491 24.56 76.4157 24.72C76.1891 24.8733 76.1491 25.0933 76.2957 25.38H75.2657C75.2991 24.8867 75.5057 24.5 75.8857 24.22C76.2657 23.94 76.7624 23.8 77.3757 23.8C78.0091 23.8 78.4791 23.95 78.7857 24.25C79.0924 24.55 79.2457 25 79.2457 25.6V28.05C79.2457 28.2033 79.2557 28.36 79.2757 28.52C79.2957 28.6733 79.3791 28.8333 79.5257 29L78.5857 29.01ZM76.8357 29.1C76.3091 29.1 75.8891 28.9733 75.5757 28.72C75.2691 28.46 75.1157 28.1067 75.1157 27.66C75.1157 27.2133 75.2691 26.8667 75.5757 26.62C75.8824 26.3733 76.3291 26.2 76.9157 26.1L78.6957 25.8V26.46L77.0357 26.72C76.6624 26.78 76.3791 26.88 76.1857 27.02C75.9924 27.16 75.8957 27.3633 75.8957 27.63C75.8957 27.89 75.9824 28.0867 76.1557 28.22C76.3357 28.3533 76.5991 28.42 76.9457 28.42C77.3924 28.42 77.7557 28.32 78.0357 28.12C78.3224 27.9133 78.4657 27.6467 78.4657 27.32L78.5957 28.03C78.4891 28.37 78.2791 28.6333 77.9657 28.82C77.6591 29.0067 77.2824 29.1 76.8357 29.1ZM81.0678 29V23.9H81.8678V29H81.0678ZM81.0078 22.74V21.8H81.9278V22.74H81.0078ZM83.7501 29V21.8H84.5501V29H83.7501ZM89.5625 29.01C89.5358 28.8967 89.5158 28.7667 89.5025 28.62C89.4958 28.4733 89.4925 28.2833 89.4925 28.05H89.4425V25.61C89.4425 25.2233 89.3525 24.94 89.1725 24.76C88.9991 24.5733 88.7158 24.48 88.3225 24.48C87.9358 24.48 87.6258 24.56 87.3925 24.72C87.1658 24.8733 87.1258 25.0933 87.2725 25.38H86.2425C86.2758 24.8867 86.4825 24.5 86.8625 24.22C87.2425 23.94 87.7391 23.8 88.3525 23.8C88.9858 23.8 89.4558 23.95 89.7625 24.25C90.0691 24.55 90.2225 25 90.2225 25.6V28.05C90.2225 28.2033 90.2325 28.36 90.2525 28.52C90.2725 28.6733 90.3558 28.8333 90.5025 29L89.5625 29.01ZM87.8125 29.1C87.2858 29.1 86.8658 28.9733 86.5525 28.72C86.2458 28.46 86.0925 28.1067 86.0925 27.66C86.0925 27.2133 86.2458 26.8667 86.5525 26.62C86.8591 26.3733 87.3058 26.2 87.8925 26.1L89.6725 25.8V26.46L88.0125 26.72C87.6391 26.78 87.3558 26.88 87.1625 27.02C86.9691 27.16 86.8725 27.3633 86.8725 27.63C86.8725 27.89 86.9591 28.0867 87.1325 28.22C87.3125 28.3533 87.5758 28.42 87.9225 28.42C88.3691 28.42 88.7325 28.32 89.0125 28.12C89.2991 27.9133 89.4425 27.6467 89.4425 27.32L89.5725 28.03C89.4658 28.37 89.2558 28.6333 88.9425 28.82C88.6358 29.0067 88.2591 29.1 87.8125 29.1ZM94.5645 29.09C94.0845 29.09 93.6812 28.9733 93.3545 28.74C93.0278 28.5067 92.8045 28.1767 92.6845 27.75L92.7945 27.73V29H92.0445V21.8H92.8445V25.09L92.7345 25.06C92.8612 24.6667 93.0912 24.36 93.4245 24.14C93.7645 23.9133 94.1678 23.8 94.6345 23.8C95.0878 23.8 95.4812 23.91 95.8145 24.13C96.1545 24.35 96.4178 24.6567 96.6045 25.05C96.7912 25.4433 96.8845 25.9033 96.8845 26.43C96.8845 26.9633 96.7878 27.43 96.5945 27.83C96.4012 28.23 96.1312 28.54 95.7845 28.76C95.4378 28.98 95.0312 29.09 94.5645 29.09ZM94.4445 28.39C94.9512 28.39 95.3478 28.2167 95.6345 27.87C95.9212 27.5167 96.0645 27.0367 96.0645 26.43C96.0645 25.83 95.9212 25.36 95.6345 25.02C95.3478 24.6733 94.9512 24.5 94.4445 24.5C93.9378 24.5 93.5378 24.6767 93.2445 25.03C92.9512 25.3767 92.8045 25.8533 92.8045 26.46C92.8045 27.0533 92.9512 27.5233 93.2445 27.87C93.5378 28.2167 93.9378 28.39 94.4445 28.39ZM98.3889 29V21.8H99.1889V29H98.3889ZM103.161 29.1C102.675 29.1 102.245 28.9867 101.871 28.76C101.498 28.5267 101.205 28.21 100.991 27.81C100.778 27.41 100.671 26.95 100.671 26.43C100.671 25.91 100.775 25.4533 100.981 25.06C101.195 24.66 101.491 24.35 101.871 24.13C102.251 23.91 102.688 23.8 103.181 23.8C103.655 23.8 104.065 23.9033 104.411 24.11C104.765 24.3167 105.035 24.6067 105.221 24.98C105.415 25.3533 105.511 25.7933 105.511 26.3C105.511 26.3667 105.508 26.43 105.501 26.49C105.501 26.55 105.495 26.6167 105.481 26.69H101.271V26.02H104.991L104.731 26.39C104.731 25.7767 104.595 25.3067 104.321 24.98C104.055 24.6467 103.675 24.48 103.181 24.48C102.675 24.48 102.265 24.6567 101.951 25.01C101.645 25.3567 101.491 25.8267 101.491 26.42C101.491 27.0267 101.645 27.5133 101.951 27.88C102.265 28.24 102.681 28.42 103.201 28.42C103.528 28.42 103.815 28.35 104.061 28.21C104.308 28.0633 104.488 27.8567 104.601 27.59H105.361C105.195 28.0567 104.915 28.4267 104.521 28.7C104.135 28.9667 103.681 29.1 103.161 29.1ZM111.398 29.1C110.898 29.1 110.458 28.9833 110.078 28.75C109.698 28.5167 109.401 28.2 109.188 27.8C108.981 27.3933 108.878 26.9367 108.878 26.43C108.878 25.9167 108.984 25.4633 109.198 25.07C109.411 24.6767 109.704 24.3667 110.078 24.14C110.458 23.9133 110.898 23.8 111.398 23.8C111.904 23.8 112.344 23.9133 112.718 24.14C113.098 24.3667 113.391 24.6767 113.598 25.07C113.811 25.4633 113.918 25.9167 113.918 26.43C113.918 26.9367 113.811 27.3933 113.598 27.8C113.391 28.2 113.098 28.5167 112.718 28.75C112.344 28.9833 111.904 29.1 111.398 29.1ZM111.398 28.42C111.744 28.42 112.044 28.3367 112.298 28.17C112.551 27.9967 112.748 27.76 112.888 27.46C113.028 27.16 113.098 26.8133 113.098 26.42C113.098 25.8333 112.941 25.3633 112.628 25.01C112.321 24.6567 111.911 24.48 111.398 24.48C110.891 24.48 110.481 24.6567 110.168 25.01C109.854 25.3633 109.698 25.8333 109.698 26.42C109.698 26.8133 109.768 27.16 109.908 27.46C110.048 27.76 110.244 27.9967 110.498 28.17C110.758 28.3367 111.058 28.42 111.398 28.42ZM115.398 29V23.9H116.148V25.1H116.198V29H115.398ZM119.048 29V25.66C119.048 25.2733 118.951 24.9833 118.758 24.79C118.564 24.5967 118.278 24.5 117.898 24.5C117.564 24.5 117.268 24.5733 117.008 24.72C116.754 24.8667 116.554 25.07 116.408 25.33C116.268 25.59 116.198 25.8933 116.198 26.24L116.068 25.03C116.241 24.65 116.504 24.35 116.858 24.13C117.218 23.91 117.624 23.8 118.078 23.8C118.611 23.8 119.038 23.9533 119.358 24.26C119.684 24.56 119.848 24.9567 119.848 25.45V29H119.048Z" fill="white"/>
<path d="M62.5617 46L66.3557 35.92H67.6437L64.0177 46H62.5617ZM70.3597 46L66.7337 35.92H68.0917L71.8997 46H70.3597ZM64.4797 41.982H69.8837V43.214H64.4797V41.982ZM77.4639 46.126C76.7919 46.126 76.2319 45.9673 75.7839 45.65C75.3452 45.3233 75.0559 44.8707 74.9159 44.292L75.1119 44.264V48.87H73.6559V38.86H75.0419V40.498L74.9019 40.456C75.0512 39.9147 75.3686 39.49 75.8539 39.182C76.3392 38.874 76.9086 38.72 77.5619 38.72C78.2059 38.72 78.7612 38.874 79.2279 39.182C79.7039 39.49 80.0679 39.9193 80.3199 40.47C80.5812 41.0207 80.7119 41.6647 80.7119 42.402C80.7119 43.1487 80.5766 43.802 80.3059 44.362C80.0352 44.922 79.6572 45.356 79.1719 45.664C78.6866 45.972 78.1172 46.126 77.4639 46.126ZM77.1559 44.922C77.7906 44.922 78.2946 44.698 78.6679 44.25C79.0412 43.802 79.2279 43.186 79.2279 42.402C79.2279 41.6273 79.0412 41.0253 78.6679 40.596C78.2946 40.1573 77.7859 39.938 77.1419 39.938C76.5072 39.938 75.9986 40.162 75.6159 40.61C75.2426 41.0487 75.0559 41.66 75.0559 42.444C75.0559 43.2093 75.2426 43.816 75.6159 44.264C75.9986 44.7027 76.5119 44.922 77.1559 44.922ZM86.3298 46.126C85.6578 46.126 85.0978 45.9673 84.6498 45.65C84.2112 45.3233 83.9218 44.8707 83.7818 44.292L83.9778 44.264V48.87H82.5218V38.86H83.9078V40.498L83.7678 40.456C83.9172 39.9147 84.2345 39.49 84.7198 39.182C85.2052 38.874 85.7745 38.72 86.4278 38.72C87.0718 38.72 87.6272 38.874 88.0938 39.182C88.5698 39.49 88.9338 39.9193 89.1858 40.47C89.4472 41.0207 89.5778 41.6647 89.5778 42.402C89.5778 43.1487 89.4425 43.802 89.1718 44.362C88.9012 44.922 88.5232 45.356 88.0378 45.664C87.5525 45.972 86.9832 46.126 86.3298 46.126ZM86.0218 44.922C86.6565 44.922 87.1605 44.698 87.5338 44.25C87.9072 43.802 88.0938 43.186 88.0938 42.402C88.0938 41.6273 87.9072 41.0253 87.5338 40.596C87.1605 40.1573 86.6518 39.938 86.0078 39.938C85.3732 39.938 84.8645 40.162 84.4818 40.61C84.1085 41.0487 83.9218 41.66 83.9218 42.444C83.9218 43.2093 84.1085 43.816 84.4818 44.264C84.8645 44.7027 85.3778 44.922 86.0218 44.922ZM91.3878 46V35.92H92.8438V46H91.3878ZM98.2478 46.14C97.5291 46.14 96.8944 45.9813 96.3438 45.664C95.8024 45.3467 95.3778 44.908 95.0698 44.348C94.7618 43.788 94.6078 43.144 94.6078 42.416C94.6078 41.6787 94.7571 41.0347 95.0558 40.484C95.3638 39.924 95.7931 39.49 96.3438 39.182C96.8944 38.874 97.5244 38.72 98.2338 38.72C98.9244 38.72 99.5218 38.8693 100.026 39.168C100.539 39.4573 100.931 39.8633 101.202 40.386C101.482 40.9087 101.622 41.5293 101.622 42.248C101.622 42.36 101.617 42.4673 101.608 42.57C101.608 42.6633 101.598 42.7613 101.58 42.864H95.5878V41.772H100.558L100.194 42.206C100.194 41.4407 100.021 40.8573 99.6758 40.456C99.3304 40.0547 98.8498 39.854 98.2338 39.854C97.5711 39.854 97.0438 40.0827 96.6518 40.54C96.2691 40.988 96.0778 41.6133 96.0778 42.416C96.0778 43.228 96.2691 43.8627 96.6518 44.32C97.0438 44.7773 97.5851 45.006 98.2758 45.006C98.6958 45.006 99.0598 44.922 99.3678 44.754C99.6758 44.5767 99.9044 44.32 100.054 43.984H101.426C101.192 44.656 100.796 45.1833 100.236 45.566C99.6851 45.9487 99.0224 46.14 98.2478 46.14ZM110.101 46.126C108.888 46.126 107.917 45.8367 107.189 45.258C106.461 44.6793 106.036 43.8533 105.915 42.78H107.357C107.441 43.48 107.721 44.012 108.197 44.376C108.673 44.74 109.317 44.922 110.129 44.922C110.81 44.922 111.324 44.796 111.669 44.544C112.024 44.292 112.201 43.9327 112.201 43.466C112.201 43.046 112.084 42.7147 111.851 42.472C111.618 42.22 111.249 42.0147 110.745 41.856L108.995 41.296C108.099 41.0067 107.441 40.6427 107.021 40.204C106.601 39.7653 106.391 39.21 106.391 38.538C106.391 37.9687 106.531 37.4787 106.811 37.068C107.1 36.6573 107.502 36.34 108.015 36.116C108.538 35.8827 109.144 35.766 109.835 35.766C110.899 35.766 111.748 36.0367 112.383 36.578C113.027 37.11 113.396 37.852 113.489 38.804H112.047C111.935 38.1693 111.692 37.7073 111.319 37.418C110.946 37.1193 110.432 36.97 109.779 36.97C109.163 36.97 108.682 37.0913 108.337 37.334C107.992 37.5767 107.819 37.9173 107.819 38.356C107.819 38.7107 107.931 39.0093 108.155 39.252C108.388 39.4853 108.771 39.686 109.303 39.854L111.137 40.442C111.986 40.7127 112.612 41.0813 113.013 41.548C113.424 42.0147 113.629 42.6027 113.629 43.312C113.629 44.208 113.321 44.9033 112.705 45.398C112.089 45.8833 111.221 46.126 110.101 46.126ZM118.446 46.14C117.616 46.14 117.004 45.9487 116.612 45.566C116.23 45.174 116.038 44.6 116.038 43.844V37.222L117.48 36.676V43.858C117.48 44.2313 117.578 44.5067 117.774 44.684C117.97 44.8613 118.288 44.95 118.726 44.95C118.894 44.95 119.044 44.936 119.174 44.908C119.305 44.88 119.417 44.8473 119.51 44.81V45.986C119.408 46.0327 119.263 46.07 119.076 46.098C118.89 46.126 118.68 46.14 118.446 46.14ZM114.61 40.022V38.86H119.51V40.022H114.61ZM124.087 46.14C123.359 46.14 122.72 45.9813 122.169 45.664C121.619 45.3373 121.189 44.894 120.881 44.334C120.573 43.7647 120.419 43.1207 120.419 42.402C120.419 41.674 120.573 41.0347 120.881 40.484C121.199 39.9333 121.628 39.504 122.169 39.196C122.72 38.8787 123.359 38.72 124.087 38.72C124.825 38.72 125.469 38.8787 126.019 39.196C126.57 39.504 126.995 39.9333 127.293 40.484C127.601 41.0347 127.755 41.674 127.755 42.402C127.755 43.1207 127.601 43.7647 127.293 44.334C126.995 44.894 126.57 45.3373 126.019 45.664C125.469 45.9813 124.825 46.14 124.087 46.14ZM124.087 44.95C124.526 44.95 124.904 44.8427 125.221 44.628C125.548 44.4133 125.805 44.1147 125.991 43.732C126.178 43.3493 126.271 42.9013 126.271 42.388C126.271 41.6227 126.066 41.0207 125.655 40.582C125.254 40.134 124.731 39.91 124.087 39.91C123.453 39.91 122.93 40.134 122.519 40.582C122.118 41.03 121.917 41.632 121.917 42.388C121.917 42.9013 122.006 43.3493 122.183 43.732C122.37 44.1147 122.627 44.4133 122.953 44.628C123.289 44.8427 123.667 44.95 124.087 44.95ZM129.531 46V38.86H130.917V40.638H130.987V46H129.531ZM130.987 42.276L130.805 40.582C130.973 39.9753 131.262 39.5133 131.673 39.196C132.083 38.8787 132.573 38.72 133.143 38.72C133.357 38.72 133.507 38.7387 133.591 38.776V40.148C133.544 40.1293 133.479 40.12 133.395 40.12C133.311 40.1107 133.208 40.106 133.087 40.106C132.387 40.106 131.859 40.288 131.505 40.652C131.159 41.016 130.987 41.5573 130.987 42.276ZM138.045 46.14C137.326 46.14 136.692 45.9813 136.141 45.664C135.6 45.3467 135.175 44.908 134.867 44.348C134.559 43.788 134.405 43.144 134.405 42.416C134.405 41.6787 134.554 41.0347 134.853 40.484C135.161 39.924 135.59 39.49 136.141 39.182C136.692 38.874 137.322 38.72 138.031 38.72C138.722 38.72 139.319 38.8693 139.823 39.168C140.336 39.4573 140.728 39.8633 140.999 40.386C141.279 40.9087 141.419 41.5293 141.419 42.248C141.419 42.36 141.414 42.4673 141.405 42.57C141.405 42.6633 141.396 42.7613 141.377 42.864H135.385V41.772H140.355L139.991 42.206C139.991 41.4407 139.818 40.8573 139.473 40.456C139.128 40.0547 138.647 39.854 138.031 39.854C137.368 39.854 136.841 40.0827 136.449 40.54C136.066 40.988 135.875 41.6133 135.875 42.416C135.875 43.228 136.066 43.8627 136.449 44.32C136.841 44.7773 137.382 45.006 138.073 45.006C138.493 45.006 138.857 44.922 139.165 44.754C139.473 44.5767 139.702 44.32 139.851 43.984H141.223C140.99 44.656 140.593 45.1833 140.033 45.566C139.482 45.9487 138.82 46.14 138.045 46.14Z" fill="white"/>
</g>
<defs>
<filter id="filter0_d_251_803" x="0" y="0" width="180" height="68" filterUnits="userSpaceOnUse" color-interpolation-filters="sRGB">
<feFlood flood-opacity="0" result="BackgroundImageFix"/>
<feColorMatrix in="SourceAlpha" type="matrix" values="0 0 0 0 0 0 0 0 0 0 0 0 0 0 0 0 0 0 127 0" result="hardAlpha"/>
<feOffset dy="1"/>
<feGaussianBlur stdDeviation="1"/>
<feComposite in2="hardAlpha" operator="out"/>
<feColorMatrix type="matrix" values="0 0 0 0 0 0 0 0 0 0 0 0 0 0 0 0 0 0 0.05 0"/>
<feBlend mode="normal" in2="BackgroundImageFix" result="effect1_dropShadow_251_803"/>
<feBlend mode="normal" in="SourceGraphic" in2="effect1_dropShadow_251_803" result="shape"/>
</filter>
<linearGradient id="paint0_linear_251_803" x1="2" y1="1" x2="275.741" y2="86.8149" gradientUnits="userSpaceOnUse">
<stop/>
<stop offset="1" stop-opacity="0.8"/>
</linearGradient>
</defs>
</svg>
