<svg width="64" height="64" viewBox="0 0 64 64" fill="none" xmlns="http://www.w3.org/2000/svg">
<rect width="64" height="64" rx="12" fill="#EDE9FE"/>
<path d="M32 32C32.6875 32 33.276 31.7552 33.7656 31.2656C34.2552 30.776 34.5 30.1875 34.5 29.5C34.5 28.8125 34.2552 28.224 33.7656 27.7344C33.276 27.2448 32.6875 27 32 27C31.3125 27 30.724 27.2448 30.2344 27.7344C29.7448 28.224 29.5 28.8125 29.5 29.5C29.5 30.1875 29.7448 30.776 30.2344 31.2656C30.724 31.7552 31.3125 32 32 32ZM32 41.1875C34.5417 38.8542 36.4271 36.7344 37.6562 34.8281C38.8854 32.9219 39.5 31.2292 39.5 29.75C39.5 27.4792 38.776 25.6198 37.3281 24.1719C35.8802 22.724 34.1042 22 32 22C29.8958 22 28.1198 22.724 26.6719 24.1719C25.224 25.6198 24.5 27.4792 24.5 29.75C24.5 31.2292 25.1146 32.9219 26.3438 34.8281C27.5729 36.7344 29.4583 38.8542 32 41.1875ZM32 44.5C28.6458 41.6458 26.1406 38.9948 24.4844 36.5469C22.8281 34.099 22 31.8333 22 29.75C22 26.625 23.0052 24.1354 25.0156 22.2812C27.026 20.4271 29.3542 19.5 32 19.5C34.6458 19.5 36.974 20.4271 38.9844 22.2812C40.9948 24.1354 42 26.625 42 29.75C42 31.8333 41.1719 34.099 39.5156 36.5469C37.8594 38.9948 35.3542 41.6458 32 44.5Z" fill="#5B21B6"/>
</svg>
