<svg width="48" height="48" viewBox="0 0 48 48" fill="none" xmlns="http://www.w3.org/2000/svg">
<rect width="48" height="48" rx="8" fill="#EDE9FE"/>
<path d="M20.75 32C20.2 32 19.7292 31.8042 19.3375 31.4125C18.9458 31.0208 18.75 30.55 18.75 30V27H21.75V24.75C21.1667 24.7167 20.6125 24.5875 20.0875 24.3625C19.5625 24.1375 19.0833 23.8 18.65 23.35V22.25H17.5L14.25 19C14.85 18.2333 15.5917 17.6917 16.475 17.375C17.3583 17.0583 18.25 16.9 19.15 16.9C19.6 16.9 20.0375 16.9333 20.4625 17C20.8875 17.0667 21.3167 17.1917 21.75 17.375V16H33.75V29C33.75 29.8333 33.4583 30.5417 32.875 31.125C32.2917 31.7083 31.5833 32 30.75 32H20.75ZM23.75 27H29.75V29C29.75 29.2833 29.8458 29.5208 30.0375 29.7125C30.2292 29.9042 30.4667 30 30.75 30C31.0333 30 31.2708 29.9042 31.4625 29.7125C31.6542 29.5208 31.75 29.2833 31.75 29V18H23.75V18.6L29.75 24.6V26H28.35L25.5 23.15L25.3 23.35C25.0667 23.5833 24.8208 23.7917 24.5625 23.975C24.3042 24.1583 24.0333 24.3 23.75 24.4V27ZM18.35 20.25H20.65V22.4C20.85 22.5333 21.0583 22.625 21.275 22.675C21.4917 22.725 21.7167 22.75 21.95 22.75C22.3333 22.75 22.6792 22.6917 22.9875 22.575C23.2958 22.4583 23.6 22.25 23.9 21.95L24.1 21.75L22.7 20.35C22.2167 19.8667 21.675 19.5042 21.075 19.2625C20.475 19.0208 19.8333 18.9 19.15 18.9C18.8167 18.9 18.5 18.925 18.2 18.975C17.9 19.025 17.6 19.1 17.3 19.2L18.35 20.25Z" fill="#5B21B6"/>
</svg>
