<svg width="56" height="56" viewBox="0 0 56 56" fill="none" xmlns="http://www.w3.org/2000/svg">
<rect width="56" height="56" rx="12" fill="#615D55" fill-opacity="0.1"/>
<path d="M22 38C21.1667 38 20.4583 37.7083 19.875 37.125C19.2917 36.5417 19 35.8333 19 35V32H22V18L23.5 19.5L25 18L26.5 19.5L28 18L29.5 19.5L31 18L32.5 19.5L34 18L35.5 19.5L37 18V35C37 35.8333 36.7083 36.5417 36.125 37.125C35.5417 37.7083 34.8333 38 34 38H22ZM34 36C34.2833 36 34.5208 35.9042 34.7125 35.7125C34.9042 35.5208 35 35.2833 35 35V21H24V32H33V35C33 35.2833 33.0958 35.5208 33.2875 35.7125C33.4792 35.9042 33.7167 36 34 36ZM25 25V23H31V25H25ZM25 28V26H31V28H25ZM33 25C32.7167 25 32.4792 24.9042 32.2875 24.7125C32.0958 24.5208 32 24.2833 32 24C32 23.7167 32.0958 23.4792 32.2875 23.2875C32.4792 23.0958 32.7167 23 33 23C33.2833 23 33.5208 23.0958 33.7125 23.2875C33.9042 23.4792 34 23.7167 34 24C34 24.2833 33.9042 24.5208 33.7125 24.7125C33.5208 24.9042 33.2833 25 33 25ZM33 28C32.7167 28 32.4792 27.9042 32.2875 27.7125C32.0958 27.5208 32 27.2833 32 27C32 26.7167 32.0958 26.4792 32.2875 26.2875C32.4792 26.0958 32.7167 26 33 26C33.2833 26 33.5208 26.0958 33.7125 26.2875C33.9042 26.4792 34 26.7167 34 27C34 27.2833 33.9042 27.5208 33.7125 27.7125C33.5208 27.9042 33.2833 28 33 28ZM22 36H31V34H21V35C21 35.2833 21.0958 35.5208 21.2875 35.7125C21.4792 35.9042 21.7167 36 22 36ZM21 36C21 36 21 35.9042 21 35.7125C21 35.5208 21 35.2833 21 35V34V36Z" fill="#615D55"/>
</svg>
