<svg width="48" height="48" viewBox="0 0 48 48" fill="none" xmlns="http://www.w3.org/2000/svg">
<rect width="48" height="48" rx="8" fill="#EDE9FE"/>
<path d="M23.9706 16.4678C25.7373 16.4678 27.4039 16.847 28.9706 17.6053C30.5373 18.3637 31.8456 19.4595 32.8956 20.8928C33.0123 21.0428 33.0498 21.1762 33.0081 21.2928C32.9664 21.4095 32.8956 21.5095 32.7956 21.5928C32.6956 21.6762 32.5789 21.7137 32.4456 21.7053C32.3123 21.697 32.1956 21.6262 32.0956 21.4928C31.1789 20.1928 29.9998 19.197 28.5581 18.5053C27.1164 17.8137 25.5873 17.4678 23.9706 17.4678C22.3539 17.4678 20.8373 17.8137 19.4206 18.5053C18.0039 19.197 16.8289 20.1928 15.8956 21.4928C15.7956 21.6428 15.6789 21.7262 15.5456 21.7428C15.4123 21.7595 15.2956 21.7262 15.1956 21.6428C15.0789 21.5595 15.0081 21.4553 14.9831 21.3303C14.9581 21.2053 14.9956 21.0762 15.0956 20.9428C16.1289 19.5262 17.4248 18.4262 18.9831 17.6428C20.5414 16.8595 22.2039 16.4678 23.9706 16.4678ZM23.9706 18.8178C26.2206 18.8178 28.1539 19.5678 29.7706 21.0678C31.3873 22.5678 32.1956 24.4262 32.1956 26.6428C32.1956 27.4762 31.8998 28.172 31.3081 28.7303C30.7164 29.2887 29.9956 29.5678 29.1456 29.5678C28.2956 29.5678 27.5664 29.2887 26.9581 28.7303C26.3498 28.172 26.0456 27.4762 26.0456 26.6428C26.0456 26.0928 25.8414 25.6303 25.4331 25.2553C25.0248 24.8803 24.5373 24.6928 23.9706 24.6928C23.4039 24.6928 22.9164 24.8803 22.5081 25.2553C22.0998 25.6303 21.8956 26.0928 21.8956 26.6428C21.8956 28.2595 22.3748 29.6095 23.3331 30.6928C24.2914 31.7762 25.5289 32.5345 27.0456 32.9678C27.1956 33.0178 27.2956 33.1012 27.3456 33.2178C27.3956 33.3345 27.4039 33.4595 27.3706 33.5928C27.3373 33.7095 27.2706 33.8095 27.1706 33.8928C27.0706 33.9762 26.9456 34.0012 26.7956 33.9678C25.0623 33.5345 23.6456 32.672 22.5456 31.3803C21.4456 30.0887 20.8956 28.5095 20.8956 26.6428C20.8956 25.8095 21.1956 25.1095 21.7956 24.5428C22.3956 23.9762 23.1206 23.6928 23.9706 23.6928C24.8206 23.6928 25.5456 23.9762 26.1456 24.5428C26.7456 25.1095 27.0456 25.8095 27.0456 26.6428C27.0456 27.1928 27.2539 27.6553 27.6706 28.0303C28.0873 28.4053 28.5789 28.5928 29.1456 28.5928C29.7123 28.5928 30.1956 28.4053 30.5956 28.0303C30.9956 27.6553 31.1956 27.1928 31.1956 26.6428C31.1956 24.7095 30.4873 23.0845 29.0706 21.7678C27.6539 20.4512 25.9623 19.7928 23.9956 19.7928C22.0289 19.7928 20.3373 20.4512 18.9206 21.7678C17.5039 23.0845 16.7956 24.7012 16.7956 26.6178C16.7956 27.0178 16.8331 27.5178 16.9081 28.1178C16.9831 28.7178 17.1623 29.4178 17.4456 30.2178C17.4956 30.3678 17.4914 30.5012 17.4331 30.6178C17.3748 30.7345 17.2789 30.8178 17.1456 30.8678C17.0123 30.9178 16.8831 30.9137 16.7581 30.8553C16.6331 30.797 16.5456 30.7012 16.4956 30.5678C16.2456 29.9178 16.0664 29.272 15.9581 28.6303C15.8498 27.9887 15.7956 27.3262 15.7956 26.6428C15.7956 24.4262 16.5998 22.5678 18.2081 21.0678C19.8164 19.5678 21.7373 18.8178 23.9706 18.8178ZM23.9706 14.0178C25.0373 14.0178 26.0789 14.147 27.0956 14.4053C28.1123 14.6637 29.0956 15.0345 30.0456 15.5178C30.1956 15.6012 30.2831 15.7012 30.3081 15.8178C30.3331 15.9345 30.3206 16.0512 30.2706 16.1678C30.2206 16.2845 30.1373 16.3762 30.0206 16.4428C29.9039 16.5095 29.7623 16.5012 29.5956 16.4178C28.7123 15.9678 27.7998 15.622 26.8581 15.3803C25.9164 15.1387 24.9539 15.0178 23.9706 15.0178C23.0039 15.0178 22.0539 15.1303 21.1206 15.3553C20.1873 15.5803 19.2956 15.9345 18.4456 16.4178C18.3123 16.5012 18.1789 16.522 18.0456 16.4803C17.9123 16.4387 17.8123 16.3512 17.7456 16.2178C17.6789 16.0845 17.6623 15.9637 17.6956 15.8553C17.7289 15.747 17.8123 15.6512 17.9456 15.5678C18.8789 15.0678 19.8539 14.6845 20.8706 14.4178C21.8873 14.1512 22.9206 14.0178 23.9706 14.0178ZM23.9706 21.2428C25.5206 21.2428 26.8539 21.7637 27.9706 22.8053C29.0873 23.847 29.6456 25.1262 29.6456 26.6428C29.6456 26.7928 29.5998 26.9137 29.5081 27.0053C29.4164 27.097 29.2956 27.1428 29.1456 27.1428C29.0123 27.1428 28.8956 27.097 28.7956 27.0053C28.6956 26.9137 28.6456 26.7928 28.6456 26.6428C28.6456 25.3928 28.1831 24.347 27.2581 23.5053C26.3331 22.6637 25.2373 22.2428 23.9706 22.2428C22.7039 22.2428 21.6164 22.6637 20.7081 23.5053C19.7998 24.347 19.3456 25.3928 19.3456 26.6428C19.3456 27.9928 19.5789 29.1387 20.0456 30.0803C20.5123 31.022 21.1956 31.9678 22.0956 32.9178C22.1956 33.0178 22.2456 33.1345 22.2456 33.2678C22.2456 33.4012 22.1956 33.5178 22.0956 33.6178C21.9956 33.7178 21.8789 33.7678 21.7456 33.7678C21.6123 33.7678 21.4956 33.7178 21.3956 33.6178C20.4123 32.5845 19.6581 31.5303 19.1331 30.4553C18.6081 29.3803 18.3456 28.1095 18.3456 26.6428C18.3456 25.1262 18.8956 23.847 19.9956 22.8053C21.0956 21.7637 22.4206 21.2428 23.9706 21.2428ZM23.9456 26.1428C24.0956 26.1428 24.2164 26.1928 24.3081 26.2928C24.3998 26.3928 24.4456 26.5095 24.4456 26.6428C24.4456 27.8928 24.8956 28.9178 25.7956 29.7178C26.6956 30.5178 27.7456 30.9178 28.9456 30.9178C29.0456 30.9178 29.1873 30.9095 29.3706 30.8928C29.5539 30.8762 29.7456 30.8512 29.9456 30.8178C30.0956 30.7845 30.2248 30.8053 30.3331 30.8803C30.4414 30.9553 30.5123 31.0678 30.5456 31.2178C30.5789 31.3512 30.5539 31.4678 30.4706 31.5678C30.3873 31.6678 30.2789 31.7345 30.1456 31.7678C29.8456 31.8512 29.5831 31.897 29.3581 31.9053C29.1331 31.9137 28.9956 31.9178 28.9456 31.9178C27.4623 31.9178 26.1748 31.4178 25.0831 30.4178C23.9914 29.4178 23.4456 28.1595 23.4456 26.6428C23.4456 26.5095 23.4914 26.3928 23.5831 26.2928C23.6748 26.1928 23.7956 26.1428 23.9456 26.1428Z" fill="#5B21B6"/>
</svg>
