<svg width="48" height="48" viewBox="0 0 48 48" fill="none" xmlns="http://www.w3.org/2000/svg">
<rect width="48" height="48" rx="8" fill="#EDE9FE"/>
<path d="M15.9839 33.253V30.253H19.0839L16.5339 21.903C16.0839 21.653 15.7131 21.2863 15.4214 20.803C15.1297 20.3196 14.9839 19.803 14.9839 19.253C14.9839 18.4196 15.2756 17.7113 15.8589 17.128C16.4422 16.5446 17.1506 16.253 17.9839 16.253C18.6339 16.253 19.2131 16.4405 19.7214 16.8155C20.2297 17.1905 20.5839 17.6696 20.7839 18.253H23.9839V17.253C23.9839 16.9696 24.0797 16.7321 24.2714 16.5405C24.4631 16.3488 24.7006 16.253 24.9839 16.253C25.1339 16.253 25.2797 16.2863 25.4214 16.353C25.5631 16.4196 25.6839 16.5196 25.7839 16.653L27.4839 15.053C27.6339 14.903 27.8131 14.8071 28.0214 14.7655C28.2297 14.7238 28.4339 14.753 28.6339 14.853L32.5339 16.653C32.7339 16.753 32.8714 16.8988 32.9464 17.0905C33.0214 17.2821 33.0172 17.4696 32.9339 17.653C32.8339 17.853 32.6881 17.9821 32.4964 18.0405C32.3047 18.0988 32.1172 18.0863 31.9339 18.003L28.3339 16.353L25.9839 18.553V19.953L28.3339 22.103L31.9339 20.453C32.1172 20.3696 32.3089 20.3613 32.5089 20.428C32.7089 20.4946 32.8506 20.6196 32.9339 20.803C33.0339 21.003 33.0422 21.1946 32.9589 21.378C32.8756 21.5613 32.7339 21.703 32.5339 21.803L28.6339 23.653C28.4339 23.753 28.2297 23.7821 28.0214 23.7405C27.8131 23.6988 27.6339 23.603 27.4839 23.453L25.7839 21.853C25.6839 21.953 25.5631 22.0446 25.4214 22.128C25.2797 22.2113 25.1339 22.253 24.9839 22.253C24.7006 22.253 24.4631 22.1571 24.2714 21.9655C24.0797 21.7738 23.9839 21.5363 23.9839 21.253V20.253H20.7839C20.7339 20.3863 20.6797 20.5113 20.6214 20.628C20.5631 20.7446 20.4839 20.8696 20.3839 21.003L25.3839 30.253H28.9839V33.253H15.9839ZM17.9839 20.253C18.2672 20.253 18.5047 20.1571 18.6964 19.9655C18.8881 19.7738 18.9839 19.5363 18.9839 19.253C18.9839 18.9696 18.8881 18.7321 18.6964 18.5405C18.5047 18.3488 18.2672 18.253 17.9839 18.253C17.7006 18.253 17.4631 18.3488 17.2714 18.5405C17.0797 18.7321 16.9839 18.9696 16.9839 19.253C16.9839 19.5363 17.0797 19.7738 17.2714 19.9655C17.4631 20.1571 17.7006 20.253 17.9839 20.253Z" fill="#5B21B6"/>
</svg>
