<svg width="45" height="44" viewBox="0 0 45 44" fill="none" xmlns="http://www.w3.org/2000/svg">
<g clip-path="url(#clip0_251_2026)">
<path d="M22.4753 43.521C34.4933 43.521 44.2358 33.7785 44.2358 21.7605C44.2358 9.74251 34.4933 0 22.4753 0C10.4574 0 0.714844 9.74251 0.714844 21.7605C0.714844 33.7785 10.4574 43.521 22.4753 43.521Z" fill="#D0CAD9" fill-opacity="0.2"/>
<path d="M29.3917 21.5165C29.3682 22.5184 29.3564 23.5204 29.3328 24.5341C29.3092 25.3004 29.156 26.0312 28.767 26.7031C28.154 27.7522 27.2228 28.3416 26.044 28.5184C25.49 28.6009 24.9242 28.6245 24.3583 28.6363C23.1324 28.6599 21.9065 28.6599 20.6805 28.6481C20.0204 28.6363 19.3485 28.6245 18.6884 28.542C16.8495 28.318 15.6 27.1275 15.3171 25.3239C15.2228 24.7463 15.211 24.1569 15.1992 23.5675C15.1756 22.3888 15.1756 21.21 15.1874 20.043C15.1992 19.3593 15.211 18.6756 15.2817 17.9919C15.4232 16.7188 16.0126 15.6933 17.156 15.045C17.6982 14.7267 18.2994 14.5617 18.9242 14.5263C19.6079 14.4791 20.2916 14.4556 20.9752 14.4556C22.4016 14.4556 23.8161 14.4674 25.2424 14.5027C26.0794 14.5145 26.8809 14.7031 27.5882 15.1628C28.543 15.7758 29.0735 16.6717 29.2385 17.7797C29.321 18.2984 29.3446 18.8288 29.3564 19.3593C29.38 20.0901 29.3564 20.8092 29.3564 21.54C29.3682 21.5165 29.3799 21.5165 29.3917 21.5165ZM16.4369 21.54C16.4487 21.54 16.4605 21.54 16.4605 21.54C16.4605 22.1648 16.4487 22.8013 16.4605 23.4261C16.4723 23.9801 16.4959 24.5459 16.5666 25.1C16.6491 25.7365 16.9202 26.2787 17.4271 26.7031C17.8986 27.0921 18.4527 27.2571 19.042 27.2925C19.7611 27.3396 20.4802 27.3514 21.211 27.3632C22.1422 27.375 23.0617 27.3632 23.9929 27.3514C24.4998 27.3396 25.0067 27.3279 25.5135 27.2925C25.9969 27.2571 26.4566 27.1275 26.8809 26.8681C27.6354 26.3848 27.9536 25.654 28.0126 24.7935C28.0597 24.1334 28.0833 23.485 28.0833 22.8249C28.0951 21.7758 28.0951 20.7267 28.0715 19.6776C28.0597 19.1 28.0361 18.5106 27.9536 17.933C27.7886 16.8367 27.0342 16.0705 25.9497 15.8937C25.3367 15.7994 24.7002 15.764 24.0754 15.7522C22.8731 15.7286 21.6825 15.7404 20.4802 15.7522C19.9026 15.764 19.3132 15.7876 18.7356 15.8583C17.9576 15.9644 17.321 16.3298 16.9085 17.0253C16.6491 17.4615 16.5312 17.9565 16.5195 18.4516C16.4841 19.4772 16.4605 20.5145 16.4369 21.54Z" fill="#5B21B6"/>
<path d="M25.9266 21.5402C25.9266 23.5559 24.2881 25.1944 22.2724 25.1944C20.2331 25.1944 18.6182 23.5677 18.6182 21.5166C18.6182 19.5009 20.3156 17.8624 22.3431 17.886C24.2999 17.9213 25.9266 19.5598 25.9266 21.5402ZM24.6299 21.5638C24.6299 20.2553 23.5808 19.1944 22.2724 19.1826C20.9639 19.1826 19.903 20.2435 19.903 21.552C19.903 22.8369 20.9639 23.9095 22.2488 23.9095C23.569 23.9095 24.6299 22.8604 24.6299 21.5638Z" fill="#5B21B6"/>
<path d="M26.0558 18.6052C25.5725 18.6052 25.207 18.228 25.207 17.7447C25.207 17.2614 25.596 16.896 26.0675 16.896C26.5508 16.896 26.9163 17.2732 26.9045 17.7565C26.9163 18.2398 26.5391 18.6052 26.0558 18.6052Z" fill="#5B21B6"/>
</g>
<defs>
<clipPath id="clip0_251_2026">
<rect width="45" height="44" fill="white"/>
</clipPath>
</defs>
</svg>
