<svg width="44" height="44" viewBox="0 0 44 44" fill="none" xmlns="http://www.w3.org/2000/svg">
<g clip-path="url(#clip0_251_2032)">
<path d="M22.24 43.521C34.258 43.521 44.0005 33.7785 44.0005 21.7605C44.0005 9.74251 34.258 0 22.24 0C10.222 0 0.479492 9.74251 0.479492 21.7605C0.479492 33.7785 10.222 43.521 22.24 43.521Z" fill="#D0CAD9" fill-opacity="0.2"/>
<path d="M28.3123 21.5025C28.3123 23.2675 28.3123 25.0432 28.3123 26.8083C28.3123 27.0864 28.2481 27.3324 28.0877 27.5571C27.8737 27.8459 27.5742 27.9743 27.2212 27.9743C26.2905 27.9743 25.3706 27.9743 24.4399 27.9743C21.8405 27.9743 19.2411 27.9743 16.6417 27.9743C15.9464 27.9743 15.465 27.5036 15.465 26.8083C15.465 23.428 15.465 20.0477 15.465 16.6781C15.465 16.539 15.465 16.3999 15.465 16.2609C15.4222 15.5228 16.032 15.1377 16.5775 15.1377C17.0803 15.1377 17.5831 15.1377 18.0858 15.1377C20.2467 15.1377 22.4182 15.1377 24.579 15.1377C25.4883 15.1377 26.3868 15.1377 27.2961 15.1377C27.8951 15.1377 28.3123 15.5549 28.3123 16.1539C28.3123 17.9296 28.3123 19.7161 28.3123 21.5025ZM22.4289 20.8393C22.4182 20.8393 22.3968 20.8286 22.3861 20.8286C22.3861 20.636 22.3861 20.4328 22.3861 20.2402C22.3861 20.1546 22.3647 20.1119 22.2684 20.1119C21.7336 20.1119 21.2094 20.1119 20.6745 20.1119C20.5676 20.1119 20.5462 20.1546 20.5462 20.2509C20.5462 20.4328 20.5462 20.6146 20.5462 20.8072C20.5462 22.4331 20.5462 24.0591 20.5462 25.6744C20.5462 25.7921 20.5676 25.8348 20.6959 25.8348C21.1987 25.8241 21.7015 25.8241 22.2042 25.8348C22.354 25.8348 22.3861 25.7921 22.3861 25.653C22.3861 24.6261 22.3754 23.5991 22.3968 22.5722C22.3968 22.369 22.4503 22.155 22.5465 21.9732C22.7284 21.5988 23.1349 21.4062 23.5307 21.4597C23.9265 21.5132 24.1725 21.7378 24.2795 22.1871C24.3223 22.369 24.333 22.5615 24.333 22.7541C24.3437 23.7275 24.3437 24.6902 24.333 25.6637C24.333 25.8134 24.3864 25.8562 24.5255 25.8562C25.0176 25.8455 25.499 25.8455 25.991 25.8562C26.1515 25.8562 26.1836 25.8027 26.1729 25.6637C26.1729 24.6261 26.1729 23.5884 26.1729 22.5508C26.1729 22.048 26.098 21.556 25.8734 21.0853C25.2743 19.8016 23.3381 19.6412 22.5572 20.7109C22.5251 20.7323 22.4717 20.7858 22.4289 20.8393ZM19.4444 22.968C19.4444 22.0801 19.4444 21.1816 19.4444 20.2937C19.4444 20.1653 19.4016 20.1119 19.2732 20.1226C18.7704 20.1332 18.2677 20.1332 17.7649 20.1226C17.6472 20.1226 17.6045 20.1653 17.6045 20.283C17.6045 22.0801 17.6045 23.8773 17.6045 25.6744C17.6045 25.8241 17.6579 25.8562 17.797 25.8562C18.2891 25.8562 18.7811 25.8455 19.2732 25.8562C19.4123 25.8562 19.4444 25.8134 19.4444 25.6744C19.4444 24.7544 19.4444 23.8559 19.4444 22.968ZM18.5886 19.2347C19.1769 19.2347 19.5834 18.8389 19.5834 18.2612C19.5834 17.6729 19.1769 17.2664 18.5993 17.2664C18.0216 17.2664 17.6151 17.6729 17.6151 18.2505C17.6045 18.8389 18.0109 19.2347 18.5886 19.2347Z" fill="#5B21B6"/>
</g>
<defs>
<clipPath id="clip0_251_2032">
<rect width="44" height="44" fill="white"/>
</clipPath>
</defs>
</svg>
