<svg width="126" height="42" viewBox="0 0 126 42" fill="none" xmlns="http://www.w3.org/2000/svg">
<g clip-path="url(#clip0_256_2003)">
<path d="M39.0742 28.7158L34.0342 20.9398L31.6822 23.4838V28.7158H28.4902V11.9158H31.6822V19.2358L38.4262 11.9158H42.3862L36.2182 18.5878L43.0102 28.7158H39.0742ZM49.3824 28.9078C45.6864 28.9078 43.0464 26.2678 43.0464 22.6678C43.0464 19.0678 45.6864 16.4278 49.3824 16.4278C53.0544 16.4278 55.6944 19.0678 55.6944 22.6678C55.6944 26.2678 53.0544 28.9078 49.3824 28.9078ZM49.3824 26.3638C51.3744 26.3638 52.7184 24.8518 52.7184 22.6678C52.7184 20.4838 51.3744 18.9718 49.3824 18.9718C47.3664 18.9718 46.0224 20.4838 46.0224 22.6678C46.0224 24.8518 47.3664 26.3638 49.3824 26.3638ZM66.0146 28.7158L62.2466 23.3158L60.8066 24.7078V28.7158H57.8546V11.4358H60.8066V21.0358L65.4386 16.6198H69.1826L64.2626 21.3718L69.5906 28.7158H66.0146ZM76.0542 28.9078C72.3582 28.9078 69.7182 26.2678 69.7182 22.6678C69.7182 19.0678 72.3582 16.4278 76.0542 16.4278C79.7262 16.4278 82.3662 19.0678 82.3662 22.6678C82.3662 26.2678 79.7262 28.9078 76.0542 28.9078ZM76.0542 26.3638C78.0462 26.3638 79.3902 24.8518 79.3902 22.6678C79.3902 20.4838 78.0462 18.9718 76.0542 18.9718C74.0382 18.9718 72.6942 20.4838 72.6942 22.6678C72.6942 24.8518 74.0382 26.3638 76.0542 26.3638Z" fill="#D2BBFF"/>
<path d="M82.3906 33.6118L85.7026 16.6198H88.6306L88.3426 18.1318C89.2786 17.0998 90.6946 16.4278 92.3026 16.4278C95.4466 16.4278 97.4626 19.1638 96.7426 22.8118C96.0706 26.3638 93.6226 28.9078 90.0466 28.9078C88.5106 28.9078 87.0706 28.3078 86.5426 27.3958L85.3186 33.6118H82.3906ZM87.2626 22.7158C86.8786 24.8758 87.9826 26.4118 89.9266 26.3878C91.7746 26.3638 93.4066 24.7798 93.7906 22.6198C94.1986 20.4598 93.0946 18.9238 91.1986 18.9478C89.3026 18.9718 87.6706 20.5558 87.2626 22.7158ZM101.507 28.9078C99.227 28.9078 97.571 27.0118 97.979 24.8998C98.435 22.5238 100.427 21.4678 102.875 21.4678H105.539C106.091 21.4678 106.379 21.2038 106.475 20.7718C106.739 19.5718 105.851 18.6598 104.315 18.6598C102.779 18.6598 101.819 19.6198 101.651 20.6518H98.699C99.083 18.3238 101.603 16.4278 104.579 16.4278C107.795 16.4278 109.883 18.4198 109.355 21.1078L107.891 28.7158H104.939L105.275 26.9158C104.579 28.1158 103.235 28.9078 101.507 28.9078ZM100.883 24.9238C100.691 25.8838 101.363 26.6998 102.563 26.6998C104.219 26.6998 105.539 25.5238 105.899 23.7238L105.947 23.4118H103.163C101.963 23.4118 101.099 23.8678 100.883 24.9238ZM119.383 16.6198H122.383L113.095 33.6118H110.119L112.831 28.6438L110.767 16.6198H113.767L114.919 24.8278L119.383 16.6198ZM120.087 25.6198H123.303L122.703 28.7158H119.487L120.087 25.6198Z" fill="#D2BBFF"/>
<path fill-rule="evenodd" clip-rule="evenodd" d="M20.8834 7.90098C11.1092 5.83308 6.83743 7.72334 1.58898 17.0917L17.1997 27.4726L20.8834 7.90098ZM1.34454 37.2273L1.34459 19.8719L15.835 29.8574L16.5416 28.7753L1.0842 18.1235L0.117248 17.4572L0.117244 18.6932L0.117188 37.2847L1.34454 37.2273Z" fill="#D2BBFF"/>
</g>
<defs>
<clipPath id="clip0_256_2003">
<rect width="126" height="34" fill="white" transform="translate(0 4)"/>
</clipPath>
</defs>
</svg>
