<svg width="126" height="42" viewBox="0 0 126 42" fill="none" xmlns="http://www.w3.org/2000/svg">
<g clip-path="url(#clip0_251_1280)">
<path d="M39.0752 28.7158L34.0352 20.9398L31.6832 23.4838V28.7158H28.4912V11.9158H31.6832V19.2358L38.4272 11.9158H42.3872L36.2192 18.5878L43.0112 28.7158H39.0752ZM49.3834 28.9078C45.6874 28.9078 43.0474 26.2678 43.0474 22.6678C43.0474 19.0678 45.6874 16.4278 49.3834 16.4278C53.0554 16.4278 55.6954 19.0678 55.6954 22.6678C55.6954 26.2678 53.0554 28.9078 49.3834 28.9078ZM49.3834 26.3638C51.3754 26.3638 52.7194 24.8518 52.7194 22.6678C52.7194 20.4838 51.3754 18.9718 49.3834 18.9718C47.3674 18.9718 46.0234 20.4838 46.0234 22.6678C46.0234 24.8518 47.3674 26.3638 49.3834 26.3638ZM66.0156 28.7158L62.2476 23.3158L60.8076 24.7078V28.7158H57.8556V11.4358H60.8076V21.0358L65.4396 16.6198H69.1836L64.2636 21.3718L69.5916 28.7158H66.0156ZM76.0552 28.9078C72.3592 28.9078 69.7192 26.2678 69.7192 22.6678C69.7192 19.0678 72.3592 16.4278 76.0552 16.4278C79.7272 16.4278 82.3672 19.0678 82.3672 22.6678C82.3672 26.2678 79.7272 28.9078 76.0552 28.9078ZM76.0552 26.3638C78.0472 26.3638 79.3912 24.8518 79.3912 22.6678C79.3912 20.4838 78.0472 18.9718 76.0552 18.9718C74.0392 18.9718 72.6952 20.4838 72.6952 22.6678C72.6952 24.8518 74.0392 26.3638 76.0552 26.3638Z" fill="#5B21B6"/>
<path d="M82.3914 33.6118L85.7034 16.6198H88.6314L88.3434 18.1318C89.2794 17.0998 90.6954 16.4278 92.3034 16.4278C95.4474 16.4278 97.4634 19.1638 96.7434 22.8118C96.0714 26.3638 93.6234 28.9078 90.0474 28.9078C88.5114 28.9078 87.0714 28.3078 86.5434 27.3958L85.3194 33.6118H82.3914ZM87.2634 22.7158C86.8794 24.8758 87.9834 26.4118 89.9274 26.3878C91.7754 26.3638 93.4074 24.7798 93.7914 22.6198C94.1994 20.4598 93.0954 18.9238 91.1994 18.9478C89.3034 18.9718 87.6714 20.5558 87.2634 22.7158ZM101.508 28.9078C99.2278 28.9078 97.5718 27.0118 97.9798 24.8998C98.4358 22.5238 100.428 21.4678 102.876 21.4678H105.54C106.092 21.4678 106.38 21.2038 106.476 20.7718C106.74 19.5718 105.852 18.6598 104.316 18.6598C102.78 18.6598 101.82 19.6198 101.652 20.6518H98.6998C99.0838 18.3238 101.604 16.4278 104.58 16.4278C107.796 16.4278 109.884 18.4198 109.356 21.1078L107.892 28.7158H104.94L105.276 26.9158C104.58 28.1158 103.236 28.9078 101.508 28.9078ZM100.884 24.9238C100.692 25.8838 101.364 26.6998 102.564 26.6998C104.22 26.6998 105.54 25.5238 105.9 23.7238L105.948 23.4118H103.164C101.964 23.4118 101.1 23.8678 100.884 24.9238ZM119.384 16.6198H122.384L113.096 33.6118H110.12L112.832 28.6438L110.768 16.6198H113.768L114.92 24.8278L119.384 16.6198ZM120.088 25.6198H123.304L122.704 28.7158H119.488L120.088 25.6198Z" fill="#5B21B6"/>
<path fill-rule="evenodd" clip-rule="evenodd" d="M20.8832 7.90098C11.109 5.83308 6.83719 7.72334 1.58874 17.0917L17.1995 27.4726L20.8832 7.90098ZM1.3443 37.2273L1.34435 19.8719L15.8348 29.8574L16.5414 28.7753L1.08396 18.1235L0.117004 17.4572L0.117 18.6932L0.116943 37.2847L1.3443 37.2273Z" fill="#5B21B6"/>
</g>
<defs>
<clipPath id="clip0_251_1280">
<rect width="126" height="34" fill="white" transform="translate(0 4)"/>
</clipPath>
</defs>
</svg>
