<svg width="45" height="44" viewBox="0 0 45 44" fill="none" xmlns="http://www.w3.org/2000/svg">
<path d="M22.7117 43.521C34.7297 43.521 44.4722 33.7785 44.4722 21.7605C44.4722 9.74251 34.7297 0 22.7117 0C10.6937 0 0.951172 9.74251 0.951172 21.7605C0.951172 33.7785 10.6937 43.521 22.7117 43.521Z" fill="#D0CAD9" fill-opacity="0.2"/>
<path d="M19.3484 25.1203C17.9821 24.9093 17.0679 24.1961 16.4451 23.0006C17.0378 23.0006 17.5702 23.0006 18.1027 23.0006C16.6259 22.3978 15.4304 21.5942 15.3501 19.7658C15.8624 19.9265 16.3245 20.0772 16.7866 20.2279C16.0432 19.585 15.4807 18.8516 15.4204 17.8269C15.3802 17.194 15.551 16.6113 15.8825 16.0387C17.5501 18.068 19.6297 19.163 22.2416 19.2233C22.2014 18.8616 22.101 18.5201 22.1412 18.1886C22.2718 16.973 22.985 16.1794 24.07 15.7173C25.1349 15.2652 26.1395 15.436 27.0034 16.1995C27.3048 16.4707 27.5459 16.5511 27.9277 16.4004C28.3094 16.2497 28.7213 16.1693 29.2236 16.0287C28.8519 16.4908 28.5505 16.8826 28.1888 17.3347C28.7112 17.2543 29.1633 17.184 29.6053 17.1237C29.6154 17.1438 29.6254 17.1739 29.6355 17.194C29.2236 17.5356 28.8017 17.8771 28.3998 18.2388C28.2994 18.3292 28.1989 18.4899 28.219 18.6004C28.43 20.5293 27.7971 22.2271 26.7422 23.7842C25.2554 25.9642 23.2161 27.3103 20.5539 27.5916C18.605 27.8026 16.7766 27.3304 15.0186 26.4765C16.5455 26.3861 17.9922 26.0445 19.3484 25.1203Z" fill="#5B21B6"/>
</svg>
